<svg xmlns="http://www.w3.org/2000/svg" width="32" height="34.78" viewBox="0 0 32 34.78">
  <defs>
    <style>
      .cls-1 {
        fill: #fff;
        fill-rule: evenodd;
      }
    </style>
  </defs>
  <path class="cls-1" d="M1385.5,1230.89H1363a3.991,3.991,0,0,0-4,3.96v6.11a0.883,0.883,0,0,0,.89.88H1365v22.94a0.888,0.888,0,0,0,1.38.73l4.04-2.65,3.27,2.54a0.9,0.9,0,0,0,1.1.01l3.29-2.51,3.15,2.5a0.9,0.9,0,0,0,1.1.01l3.33-2.55,3.95,2.65a0.889,0.889,0,0,0,1.39-.73v-28.44A5.493,5.493,0,0,0,1385.5,1230.89Zm-3.7,32.42-3.16-2.5a0.886,0.886,0,0,0-1.09-.01l-3.3,2.52-3.22-2.51a0.886,0.886,0,0,0-1.04-.04l-2.99,1.96v-27.88a3.828,3.828,0,0,0-.54-1.98h19.05a3.474,3.474,0,0,1,3.49,3.46v26.38l-2.89-1.94a0.887,0.887,0,0,0-1.04.04Zm-18.8-30.44a2,2,0,0,1,2,1.98v5.01h-4v-5.02A1.987,1.987,0,0,1,1363,1232.87Zm23.5,8.92h-17v-1.99h17v1.99Zm0,4.45h-17v-1.98h17v1.98Zm0,4.46h-17v-1.98h17v1.98Zm-8.5,4.46h-8.5v-1.98h8.5v1.98Z" transform="translate(-1359 -1230.88)"/>
</svg>
