<svg xmlns="http://www.w3.org/2000/svg" width="40.937" height="52" viewBox="0 0 40.937 52">
  <defs>
    <style>
      .cls-1 {
        fill: #fff;
        fill-rule: evenodd;
      }
    </style>
  </defs>
  <path class="cls-1" d="M558.8,1241.03h-0.978v-2.62H559a3.02,3.02,0,0,0,0-6.04h-1.186v-7.13a3.263,3.263,0,0,0-3.244-3.27H539.6a3.263,3.263,0,0,0-3.244,3.27v2.67a0.832,0.832,0,0,0-.311-0.08,3.524,3.524,0,0,0-2.788.94c-1.22,1.21-1.16,3.17-1.121,4.46,0.175,5.75-.611,7.82-1.372,9.82-0.867,2.28-1.763,4.63-1.307,11.54,0.081,1.22-.854,3-2.094,4.75l-1.912-1.16a0.989,0.989,0,0,0-1.351.32l-2.912,4.52a1.021,1.021,0,0,0-.133.78,0.963,0.963,0,0,0,.464.63l15.8,9.39a1.013,1.013,0,0,0,.507.14,0.757,0.757,0,0,0,.256-0.04,0.946,0.946,0,0,0,.611-0.47l2.582-4.56a1.01,1.01,0,0,0-.353-1.36l-1.489-.9a14.523,14.523,0,0,1,2.048-3.3c6.943-.59,7.775-4.36,7.808-4.52a0.935,0.935,0,0,0,0-.14h5.28a3.255,3.255,0,0,0,3.244-3.26v-0.3H558.8a44.33,44.33,0,0,1,3-11.06A3.014,3.014,0,0,0,558.8,1241.03Zm-0.79-6.65h1a1.005,1.005,0,0,1,0,2.01h-1v-2.01Zm-7.2-10.4-0.267,1.01h-6.9l-0.267-1.01H550.8Zm-13.336,47.59-14.035-8.34,1.821-2.82,13.81,8.34Zm3.72-10.23c-0.408.03-1.34,0.12-3.483,4.24l-8.611-5.2c1.347-1.92,2.478-4.11,2.358-5.92-0.427-6.47.353-8.52,1.179-10.69,0.832-2.19,1.691-4.45,1.5-10.6-0.029-.94-0.073-2.37.529-2.97a1.645,1.645,0,0,1,1.3-.36,1.028,1.028,0,0,0,.394-0.06v25.63a3.254,3.254,0,0,0,3.244,3.26h7.626C546.894,1259.33,545.614,1260.99,541.187,1261.34Zm14.634-5.93a1.249,1.249,0,0,1-1.247,1.25H539.6a1.25,1.25,0,0,1-1.248-1.25v-30.17a1.259,1.259,0,0,1,1.248-1.26h1.7l0.454,1.71a1.751,1.751,0,0,0,1.687,1.31h7.281a1.752,1.752,0,0,0,1.688-1.31l0.453-1.71h1.7a1.258,1.258,0,0,1,1.247,1.26v15.79H554.8a3.015,3.015,0,0,0-3,3.02,2.984,2.984,0,0,0,.779,2.01,3.023,3.023,0,0,0-.779,2.01,2.984,2.984,0,0,0,.779,2.01,3.01,3.01,0,0,0,2.216,5.03h1.017v0.3Zm2.975-2.31H554.8a1.005,1.005,0,0,1,0-2.01H558.8A1.005,1.005,0,0,1,558.8,1253.1Zm0-4.02H554.8a1.005,1.005,0,0,1,0-2.01H558.8A1.005,1.005,0,0,1,558.8,1249.08Zm0-4.02H554.8a1.01,1.01,0,0,1,0-2.02H558.8A1.01,1.01,0,0,1,558.8,1245.06Z" transform="translate(-521.063 -1221.97)"/>
</svg>
