<svg xmlns="http://www.w3.org/2000/svg" width="50.875" height="41.96" viewBox="0 0 50.875 41.96">
  <defs>
    <style>
      .cls-1 {
        fill: #fff;
        fill-rule: evenodd;
      }
    </style>
  </defs>
  <path class="cls-1" d="M984.258,1247.55l-0.127-.05a0.934,0.934,0,0,0-1.217.53l-3.486,8.77a0.522,0.522,0,0,1-.44.3h-9.055a0.659,0.659,0,0,1-.544-0.34l-4.131-8.32a2.884,2.884,0,0,0-2.344-1.46h-2.085a0.947,0.947,0,0,0-.937.95v0.13a0.947,0.947,0,0,0,.937.95h2.086a0.659,0.659,0,0,1,.544.34l4.131,8.31a2.886,2.886,0,0,0,2.346,1.46h9.052a2.694,2.694,0,0,0,2.3-1.57l3.487-8.77A0.947,0.947,0,0,0,984.258,1247.55Zm-14.318,13.76a3.035,3.035,0,1,0,3.015,3.04A3.028,3.028,0,0,0,969.94,1261.31Zm0,4.05a1.015,1.015,0,1,1,1-1.01A1.012,1.012,0,0,1,969.94,1265.36Zm9.043-4.05a3.035,3.035,0,1,0,3.015,3.04A3.028,3.028,0,0,0,978.983,1261.31Zm0,4.05a1.015,1.015,0,1,1,1.005-1.01A1.012,1.012,0,0,1,978.983,1265.36ZM956.108,1238a11.063,11.063,0,1,0-11.063,11.14A11.115,11.115,0,0,0,956.108,1238Zm-20.117,0a9.054,9.054,0,1,1,9.054,9.11A9.095,9.095,0,0,1,935.991,1238Zm10.059,5.55v-0.49H946.2a3.035,3.035,0,0,0,0-6.07h-2.3a1.015,1.015,0,0,1,0-2.03h1.912a1.5,1.5,0,0,1,1.364.39,0.99,0.99,0,0,0,1.42,0,1.015,1.015,0,0,0,0-1.43,3.227,3.227,0,0,0-2.539-.97v-0.5a1.005,1.005,0,1,0-2.01,0v0.49h-0.147a3.035,3.035,0,0,0,0,6.07h2.3a1.01,1.01,0,0,1,0,2.02h-1.8a1.49,1.49,0,0,1-1.439-.47,1,1,0,0,0-1.419-.08,1.018,1.018,0,0,0-.078,1.43,3.283,3.283,0,0,0,2.582,1.14v0.5A1.005,1.005,0,1,0,946.05,1243.55Zm14.9,23.26h-0.033a18.209,18.209,0,0,1-17.719-12.36,1,1,0,0,0-1.273-.63,1.01,1.01,0,0,0-.63,1.28,20.242,20.242,0,0,0,19.051,13.74c0.212,0,.424,0,0.635-0.01A1.01,1.01,0,0,0,960.954,1266.81Zm-1.2-36.4a18.179,18.179,0,0,1,17.865,12.83,1.01,1.01,0,0,0,.961.71,1.027,1.027,0,0,0,.3-0.05,1.009,1.009,0,0,0,.665-1.26,20.1,20.1,0,0,0-19.852-14.25A1.011,1.011,0,0,0,959.757,1230.41Z" transform="translate(-933.969 -1226.88)"/>
</svg>
