<svg xmlns="http://www.w3.org/2000/svg" width="40.875" height="38" viewBox="0 0 40.875 38">
  <defs>
    <style>
      .cls-1 {
        fill: #fff;
        fill-rule: evenodd;
      }
    </style>
  </defs>
  <path class="cls-1" d="M437.125,4095.96c-0.124,0-.248-0.01-0.373-0.02a27.268,27.268,0,0,1-15.056-7.38c-6.6-6.42-8.2-12.23-8.561-15.12a2.926,2.926,0,0,1,1.337-2.81l3.87-2.44a2.877,2.877,0,0,1,2.249-.37,2.921,2.921,0,0,1,1.816,1.38l2.3,4.03a2.93,2.93,0,0,1-.174,3.17l-0.942,1.3a16.076,16.076,0,0,0,3.591,4.68,26.237,26.237,0,0,0,5.48,3.51l1.078-.96a2.9,2.9,0,0,1,3.283-.39l3.5,1.86a2.949,2.949,0,0,1,1.231,3.9l-2.044,4.06-0.891-.45,0.891,0.45A2.9,2.9,0,0,1,437.125,4095.96Zm-17.239-26.22a0.921,0.921,0,0,0-.481.14l-3.869,2.45a0.9,0.9,0,0,0-.42.86c0.267,2.12,1.578,7.71,7.969,13.93a25.222,25.222,0,0,0,13.928,6.83,0.891,0.891,0,0,0,.912-0.5h0l2.043-4.06a0.912,0.912,0,0,0-.384-1.21l-3.5-1.87a0.9,0.9,0,0,0-1.025.13l-1.57,1.39a1,1,0,0,1-1.067.17,29.174,29.174,0,0,1-6.572-4.12,17.254,17.254,0,0,1-4.344-5.93,1,1,0,0,1,.122-0.96l1.287-1.77a0.914,0.914,0,0,0,.055-0.99l-2.3-4.03a0.889,0.889,0,0,0-.567-0.43A0.853,0.853,0,0,0,419.886,4069.74Zm14.835,8.46a11,11,0,0,1-2.457-.29,1,1,0,0,1-.163-1.9,3.425,3.425,0,0,0,1.932-2.63,8.875,8.875,0,0,1-2.08-5.68c0-5.37,4.945-9.73,11.024-9.73S454,4062.33,454,4067.7s-4.945,9.74-11.022,9.74a12.282,12.282,0,0,1-3.4-.48A10.293,10.293,0,0,1,434.721,4078.2Zm8.256-18.23c-4.978,0-9.027,3.47-9.027,7.73a6.973,6.973,0,0,0,1.841,4.66,1.032,1.032,0,0,1,.253.66,4.966,4.966,0,0,1-1.063,3.17,8.313,8.313,0,0,0,3.983-1.19,0.994,0.994,0,0,1,.808-0.08,10.332,10.332,0,0,0,3.2.51c4.976,0,9.026-3.47,9.026-7.73S447.953,4059.97,442.977,4059.97Zm-3.747,8.11a1,1,0,1,1-1-1A1,1,0,0,1,439.23,4068.08Zm4.513,0a1,1,0,1,1-1-1A1,1,0,0,1,443.743,4068.08Zm4.512,0a1,1,0,1,1-1-1A1,1,0,0,1,448.255,4068.08Z" transform="translate(-413.125 -4057.97)"/>
</svg>
