<svg xmlns="http://www.w3.org/2000/svg" width="24.88" height="20" viewBox="0 0 24.88 20">
  <defs>
    <style>
      .cls-1 {
        fill: #fff;
        fill-rule: evenodd;
      }
    </style>
  </defs>
  <path class="cls-1" d="M1373.01,3459.68h9.02a2.675,2.675,0,0,0,2.3-1.54l3.47-8.61a0.913,0.913,0,0,0-.52-1.2l-0.12-.05a0.944,0.944,0,0,0-1.22.52l-3.47,8.6a0.5,0.5,0,0,1-.44.3h-9.02a0.69,0.69,0,0,1-.55-0.33l-4.11-8.16a2.881,2.881,0,0,0-2.34-1.44h-2.08a0.935,0.935,0,0,0-.93.93v0.13a0.935,0.935,0,0,0,.93.93h2.08a0.658,0.658,0,0,1,.54.33l4.12,8.16A2.871,2.871,0,0,0,1373.01,3459.68Zm0,2.15a2.98,2.98,0,1,0,3.01,2.98A3,3,0,0,0,1373.01,3461.83Zm0,1.99a0.99,0.99,0,1,1-1,.99A1,1,0,0,1,1373.01,3463.82Zm9.02-1.99a2.98,2.98,0,1,0,3,2.98A3,3,0,0,0,1382.03,3461.83Zm0,1.99a0.99,0.99,0,1,1-1,.99A0.994,0.994,0,0,1,1382.03,3463.82Z" transform="translate(-1363 -3447.78)"/>
</svg>
