<svg xmlns="http://www.w3.org/2000/svg" xmlns:xlink="http://www.w3.org/1999/xlink" width="34" height="30" viewBox="0 0 34 30">
  <defs>
    <style>
      .cls-1 {
        fill-rule: evenodd;
        fill: url(#linear-gradient);
      }
    </style>
    <linearGradient id="linear-gradient" x1="982" y1="2633" x2="982" y2="2603" gradientUnits="userSpaceOnUse">
      <stop offset="0" stop-color="#0fdaff"/>
      <stop offset="1" stop-color="#0fb3f7"/>
    </linearGradient>
  </defs>
  <path class="cls-1" d="M990.361,2633H973.647a0.991,0.991,0,0,1-1-.98v-17.31a11.274,11.274,0,0,0-2.747,1.4,1.04,1.04,0,0,1-.855.17,1.021,1.021,0,0,1-.667-0.55l-3.289-7.25a0.96,0.96,0,0,1,.291-1.16c0.253-.2,6.272-4.85,12.714-4.27a0.992,0.992,0,0,1,.909.98,3,3,0,0,0,6,0,0.992,0.992,0,0,1,.908-0.98c6.449-.59,12.463,4.07,12.716,4.27a0.961,0.961,0,0,1,.289,1.16l-3.288,7.25a1.019,1.019,0,0,1-.667.55,1.041,1.041,0,0,1-.855-0.17,11.292,11.292,0,0,0-2.747-1.4v17.31A0.991,0.991,0,0,1,990.361,2633Zm-15.713-1.96H989.36v-17.68a0.994,0.994,0,0,1,.389-0.78,1.022,1.022,0,0,1,.864-0.17,17.411,17.411,0,0,1,3.668,1.46l2.48-5.46c-1.515-1.03-5.588-3.46-9.847-3.44a5.021,5.021,0,0,1-9.82,0c-4.265-.06-8.332,2.41-9.848,3.44l2.481,5.46a17.411,17.411,0,0,1,3.668-1.46,1.024,1.024,0,0,1,.864.17,0.994,0.994,0,0,1,.389.78v17.68Z" transform="translate(-965 -2603)"/>
</svg>
