<svg xmlns="http://www.w3.org/2000/svg" width="20" height="17.96" viewBox="0 0 20 17.96">
  <defs>
    <style>
      .cls-1 {
        fill: #fff;
        fill-rule: evenodd;
      }
    </style>
  </defs>
  <path class="cls-1" d="M959.976,9223.37c-5.517,0-10,3.77-10,8.4a7.379,7.379,0,0,0,1.462,4.38l-0.734,5.2,5.1-1.94a11.49,11.49,0,0,0,4.179.77c5.517,0,10-3.77,10-8.41S965.493,9223.37,959.976,9223.37Zm0,14.79a9.638,9.638,0,0,1-3.641-.7l-0.514-.21-2.676,1.02,0.377-2.68-0.376-.48a5.458,5.458,0,0,1-1.186-3.34c0-3.52,3.6-6.38,8.016-6.38s8.016,2.86,8.016,6.38S964.4,9238.16,959.976,9238.16Z" transform="translate(-949.969 -9223.38)"/>
</svg>
