<svg id="Group_3_copy_3" data-name="Group 3 copy 3" xmlns="http://www.w3.org/2000/svg" width="73" height="73" viewBox="0 0 73 73">
  <defs>
    <style>
      .cls-1 {
        fill: none;
        stroke: #e0e7f8;
        stroke-width: 1px;
        fill-rule: evenodd;
      }
    </style>
  </defs>
  <path class="cls-1" d="M647,2230.31L659.317,2218" transform="translate(-646.5 -2217.5)"/>
  <path id="Shape_1_copy_6" data-name="Shape 1 copy 6" class="cls-1" d="M647,2289.04L718.06,2218" transform="translate(-646.5 -2217.5)"/>
  <path id="Shape_1_copy_7" data-name="Shape 1 copy 7" class="cls-1" d="M647,2241.68L670.686,2218" transform="translate(-646.5 -2217.5)"/>
  <path id="Shape_1_copy_8" data-name="Shape 1 copy 8" class="cls-1" d="M647,2253.04L682.056,2218" transform="translate(-646.5 -2217.5)"/>
  <path id="Shape_1_copy_9" data-name="Shape 1 copy 9" class="cls-1" d="M647,2265.36L694.373,2218" transform="translate(-646.5 -2217.5)"/>
  <path id="Shape_1_copy_10" data-name="Shape 1 copy 10" class="cls-1" d="M647,2276.72L705.743,2218" transform="translate(-646.5 -2217.5)"/>
  <path id="Shape_1_copy" data-name="Shape 1 copy" class="cls-1" d="M718.934,2277.56l-12.348,12.35" transform="translate(-646.5 -2217.5)"/>
  <path id="Shape_1_copy_11" data-name="Shape 1 copy 11" class="cls-1" d="M719.008,2266.09l-23.9,23.89" transform="translate(-646.5 -2217.5)"/>
  <path id="Shape_1_copy_11-2" data-name="Shape 1 copy 11" class="cls-1" d="M718.988,2254.71l-35.268,35.26" transform="translate(-646.5 -2217.5)"/>
  <path id="Shape_1_copy_11-3" data-name="Shape 1 copy 11" class="cls-1" d="M718.024,2243.33l-46.638,46.62" transform="translate(-646.5 -2217.5)"/>
  <path id="Shape_1_copy_11-4" data-name="Shape 1 copy 11" class="cls-1" d="M718.954,2230.99L660,2289.93" transform="translate(-646.5 -2217.5)"/>
</svg>
