<svg xmlns="http://www.w3.org/2000/svg" xmlns:xlink="http://www.w3.org/1999/xlink" width="34.68" height="27.97" viewBox="0 0 34.68 27.97">
  <defs>
    <style>
      .cls-1 {
        fill-rule: evenodd;
        fill: url(#linear-gradient);
      }
    </style>
    <linearGradient id="linear-gradient" x1="1220.47" y1="2630.22" x2="1220.47" y2="2602.25" gradientUnits="userSpaceOnUse">
      <stop offset="0" stop-color="#0fdaff"/>
      <stop offset="1" stop-color="#0fb3f7"/>
    </linearGradient>
  </defs>
  <path class="cls-1" d="M1227.93,2614.46a3.306,3.306,0,1,0,3.23,3.3A3.27,3.27,0,0,0,1227.93,2614.46Zm0,4.57a1.27,1.27,0,1,1,1.24-1.27A1.253,1.253,0,0,1,1227.93,2619.03Zm9.35-7.88a3.132,3.132,0,0,0-2.64-1.27h-6.46a7.705,7.705,0,0,0-15.41,0h-6.47a3.171,3.171,0,0,0-2.64,1.27,3.325,3.325,0,0,0-.34,2.97l4.07,12.5a5.424,5.424,0,0,0,4.86,3.6h16.44a5.413,5.413,0,0,0,4.86-3.6l4.08-12.5A3.326,3.326,0,0,0,1237.28,2611.15Zm-22.52-1.27a5.716,5.716,0,0,1,11.43,0h-11.43Zm13.93,18.3h-16.44a3.4,3.4,0,0,1-2.97-2.2l-4.08-12.5a1.292,1.292,0,0,1,.08-1.14,1.2,1.2,0,0,1,1.02-.43h28.34a1.219,1.219,0,0,1,1.03.43,1.291,1.291,0,0,1,.07,1.14l-4.08,12.5A3.4,3.4,0,0,1,1228.69,2628.18Zm-15.68-13.72a3.306,3.306,0,1,0,3.24,3.3A3.27,3.27,0,0,0,1213.01,2614.46Zm0,4.57a1.27,1.27,0,1,1,1.25-1.27A1.259,1.259,0,0,1,1213.01,2619.03Z" transform="translate(-1203.13 -2602.25)"/>
</svg>
