<svg xmlns="http://www.w3.org/2000/svg" xmlns:xlink="http://www.w3.org/1999/xlink" width="25" height="37" viewBox="0 0 25 37">
  <defs>
    <style>
      .cls-1 {
        fill-rule: evenodd;
        fill: url(#linear-gradient);
      }
    </style>
    <linearGradient id="linear-gradient" x1="1220.5" y1="2757.94" x2="1220.5" y2="2720.94" gradientUnits="userSpaceOnUse">
      <stop offset="0" stop-color="#0fdaff"/>
      <stop offset="1" stop-color="#0fb3f7"/>
    </linearGradient>
  </defs>
  <path class="cls-1" d="M1220.5,2757.94a1.008,1.008,0,0,1-.99-0.83c-0.74-4.27-3.25-7.52-5.68-10.67-2.87-3.7-5.83-7.54-5.83-12.95a12.5,12.5,0,1,1,25,0c0,5.32-2.95,9.06-5.8,12.68-2.51,3.19-5.11,6.48-5.71,10.9a1.007,1.007,0,0,1-.97.87h-0.02Zm0-34.98a10.524,10.524,0,0,0-10.5,10.53c0,4.73,2.63,8.13,5.41,11.72a34.355,34.355,0,0,1,5.03,7.93,31.688,31.688,0,0,1,5.19-8.21c2.76-3.5,5.37-6.82,5.37-11.44A10.524,10.524,0,0,0,1220.5,2722.96Zm0,14.52a4.52,4.52,0,1,1,4.5-4.52A4.517,4.517,0,0,1,1220.5,2737.48Zm0-7.03a2.51,2.51,0,1,0,2.5,2.51A2.509,2.509,0,0,0,1220.5,2730.45Z" transform="translate(-1208 -2720.94)"/>
</svg>
