<svg xmlns="http://www.w3.org/2000/svg" width="27.875" height="39" viewBox="0 0 27.875 39">
  <defs>
    <style>
      .cls-1 {
        fill: #fff;
        fill-rule: evenodd;
      }
    </style>
  </defs>
  <path class="cls-1" d="M934.231,4095.89H917.989a3,3,0,0,1-3.014-2.98v-33.05a3,3,0,0,1,3.014-2.98h16.242a3,3,0,0,1,3.015,2.98v12.05a1.006,1.006,0,0,1-2.012,0v-12.05a1,1,0,0,0-1-.99H917.989a1,1,0,0,0-1,.99v33.05a1,1,0,0,0,1,.99h16.242a1,1,0,0,0,1-.99v-4.1a1.006,1.006,0,0,1,2.012,0v4.1A3,3,0,0,1,934.231,4095.89Zm-3.557-33.49h-9.128a1.006,1.006,0,0,1-.963-0.71l-1.072-3.53a0.983,0.983,0,0,1,.156-0.88,1.016,1.016,0,0,1,.807-0.4h11.272a1.016,1.016,0,0,1,.807.4,0.983,0.983,0,0,1,.156.88l-1.072,3.53A1,1,0,0,1,930.674,4062.4Zm-8.38-1.99h7.633l0.467-1.54h-8.568Zm9.925,24.6a2.485,2.485,0,1,1,2.512-2.48A2.5,2.5,0,0,1,932.219,4085.01Zm0-2.98a0.5,0.5,0,1,0,.5.5A0.5,0.5,0,0,0,932.219,4082.03Zm6.064,2.98a2.485,2.485,0,1,1,2.512-2.48A2.5,2.5,0,0,1,938.283,4085.01Zm0-2.98a0.5,0.5,0,1,0,.5.5A0.5,0.5,0,0,0,938.283,4082.03Zm0.509-2.72h-7.247a1.011,1.011,0,0,1-.9-0.54l-3.113-6.07h-2.054a1,1,0,1,1,0-1.99h2.671a1.01,1.01,0,0,1,.9.54l3.113,6.07h5.972l2.764-6.26a1,1,0,0,1,1.843.8l-3.027,6.86A1.006,1.006,0,0,1,938.792,4079.31Z" transform="translate(-914.969 -4056.88)"/>
</svg>
