<svg xmlns="http://www.w3.org/2000/svg" width="21.594" height="20.97" viewBox="0 0 21.594 20.97">
  <defs>
    <style>
      .cls-1 {
        fill: #fff;
        fill-rule: evenodd;
      }
    </style>
  </defs>
  <path class="cls-1" d="M553.292,8335.13l-2.55-1.35a2.39,2.39,0,0,0-2.685.32l-0.654.58a18.5,18.5,0,0,1-3.776-2.42,11.382,11.382,0,0,1-2.484-3.18l0.592-.8a2.379,2.379,0,0,0,.142-2.58l-1.673-2.92a2.37,2.37,0,0,0-3.325-.82l-2.82,1.77a2.366,2.366,0,0,0-1.093,2.28c0.271,2.13,1.45,6.4,6.313,11.1a20.208,20.208,0,0,0,11.112,5.41c0.1,0.01.205,0.02,0.308,0.02a2.371,2.371,0,0,0,2.111-1.31l1.489-2.94A2.38,2.38,0,0,0,553.292,8335.13Zm-0.757,2.27-1.488,2.94h0a0.4,0.4,0,0,1-.4.22,18.153,18.153,0,0,1-10-4.87c-4.6-4.44-5.536-8.42-5.727-9.92a0.378,0.378,0,0,1,.186-0.37l2.819-1.77a0.392,0.392,0,0,1,.211-0.07,0.266,0.266,0,0,1,.1.02,0.387,0.387,0,0,1,.249.18l1.673,2.92a0.394,0.394,0,0,1-.023.43l-0.938,1.28a1,1,0,0,0-.121.95,12.788,12.788,0,0,0,3.233,4.39,21.71,21.71,0,0,0,4.854,3.02,0.973,0.973,0,0,0,1.055-.16l1.143-1.01a0.416,0.416,0,0,1,.452-0.06l2.548,1.35A0.4,0.4,0,0,1,552.535,8337.4Z" transform="translate(-532.969 -8321.56)"/>
</svg>
