<svg xmlns="http://www.w3.org/2000/svg" width="18" height="22.97" viewBox="0 0 18 22.97">
  <defs>
    <style>
      .cls-1 {
        fill: #fff;
        fill-rule: evenodd;
      }
    </style>
  </defs>
  <path class="cls-1" d="M1376,8320.53a9.041,9.041,0,0,0-9,9.07c0,6.92,8.04,13.42,8.38,13.69a0.961,0.961,0,0,0,.62.22,0.981,0.981,0,0,0,.61-0.21c0.35-.27,8.39-6.64,8.39-13.7A9.041,9.041,0,0,0,1376,8320.53Zm0,20.65c-1.81-1.6-7-6.64-7-11.58a7,7,0,1,1,14,0C1383,8334.63,1377.82,8339.6,1376,8341.18Zm0-15.24a4.035,4.035,0,1,0,4,4.04A4.02,4.02,0,0,0,1376,8325.94Zm0,6.05a2.015,2.015,0,1,1,2-2.01A2.008,2.008,0,0,1,1376,8331.99Z" transform="translate(-1367 -8320.53)"/>
</svg>
