<svg xmlns="http://www.w3.org/2000/svg" width="25" height="24" viewBox="0 0 25 24">
  <defs>
    <style>
      .cls-1 {
        fill: #fff;
        fill-rule: evenodd;
      }
    </style>
  </defs>
  <path class="cls-1" d="M951,3467.55a3.02,3.02,0,0,1-3-3.03v-14.91h0v-0.25a3.408,3.408,0,0,1,2.824-3.32l16.055-2.44a3.294,3.294,0,0,1,.439-0.03,2.691,2.691,0,0,1,2.682,2.76v5.05a3.017,3.017,0,0,1,3,3.03v10.1a3.029,3.029,0,0,1-3,3.04H951Zm-1-3.03a1,1,0,0,0,1,1.01h19a1.013,1.013,0,0,0,1-1.02v-10.1a1,1,0,0,0-1-1.01H951a3.024,3.024,0,0,1-1-.17v11.29Zm17.32-18.93a0.66,0.66,0,0,0-.139.01l-16.055,2.43a1.412,1.412,0,0,0-1.121,1.33v1a1.008,1.008,0,0,0,.991,1.02h17.009v-5.05A0.669,0.669,0,0,0,967.32,3445.59Zm2.682,6.29h-0.5v-5.55a2.18,2.18,0,0,0-2.547-2.23l-16.055,2.44a2.905,2.905,0,0,0-2.4,2.82v0.75h0v14.41a2.513,2.513,0,0,0,2.5,2.52h19a2.517,2.517,0,0,0,2.5-2.53v-10.1A2.519,2.519,0,0,0,970,3451.88Zm-20.5-2.52a1.914,1.914,0,0,1,1.546-1.83l16.056-2.43a1.178,1.178,0,0,1,1.4,1.23v5.55H951a1.505,1.505,0,0,1-1.491-1.52v-1Zm22,15.15a1.513,1.513,0,0,1-1.5,1.52H951a1.509,1.509,0,0,1-1.5-1.51v-12.13a2.5,2.5,0,0,0,1.5.5H970a1.509,1.509,0,0,1,1.5,1.52v10.1Zm-4.5-2.02a3.03,3.03,0,1,1,3-3.03A3.019,3.019,0,0,1,967.005,3462.49Zm0-4.04a1.01,1.01,0,1,0,1,1.01A1,1,0,0,0,967.005,3458.45Zm0-1.51a2.525,2.525,0,1,0,2.5,2.52A2.511,2.511,0,0,0,967.005,3456.94Zm0,4.04a1.515,1.515,0,1,1,1.5-1.52A1.509,1.509,0,0,1,967.005,3460.98Z" transform="translate(-948 -3443.56)"/>
</svg>
