<svg xmlns="http://www.w3.org/2000/svg" xmlns:xlink="http://www.w3.org/1999/xlink" width="33.5" height="33.97" viewBox="0 0 33.5 33.97">
  <defs>
    <style>
      .cls-1 {
        fill-rule: evenodd;
        fill: url(#linear-gradient);
      }
    </style>
    <linearGradient id="linear-gradient" x1="1459" y1="2757.44" x2="1459" y2="2723.47" gradientUnits="userSpaceOnUse">
      <stop offset="0" stop-color="#0fdaff"/>
      <stop offset="1" stop-color="#0fb3f7"/>
    </linearGradient>
  </defs>
  <path class="cls-1" d="M1475.53,2741.93l-0.19-.46a3.349,3.349,0,0,1,0-2.03l0.19-.46a3.487,3.487,0,0,0-.71-3.58l-0.34-.35a3.245,3.245,0,0,1-.77-1.87v-0.5a3.467,3.467,0,0,0-2-3.04l-0.45-.18a3.271,3.271,0,0,1-1.41-1.44l-0.19-.46a3.417,3.417,0,0,0-2.99-2.03h-0.49a3.161,3.161,0,0,1-1.85-.77l-0.35-.35a3.351,3.351,0,0,0-2.36-.94,3.014,3.014,0,0,0-1.17.23l-0.45.18a3.026,3.026,0,0,1-2,0l-0.45-.18a3.014,3.014,0,0,0-1.17-.23,3.333,3.333,0,0,0-2.36.94l-0.35.35a3.161,3.161,0,0,1-1.85.77h-0.49a3.417,3.417,0,0,0-2.99,2.03l-0.19.46a3.271,3.271,0,0,1-1.41,1.44l-0.45.18a3.449,3.449,0,0,0-2,3.04v0.5a3.313,3.313,0,0,1-.77,1.87l-0.35.35a3.505,3.505,0,0,0-.7,3.58l0.19,0.46a3.349,3.349,0,0,1,0,2.03l-0.19.46a3.5,3.5,0,0,0,.7,3.58l0.35,0.35a3.314,3.314,0,0,1,.77,1.88v0.49a3.449,3.449,0,0,0,2,3.04l0.45,0.19a3.2,3.2,0,0,1,1.41,1.43l0.19,0.46a3.4,3.4,0,0,0,2.99,2.03h0.49a3.173,3.173,0,0,1,1.85.78l0.35,0.35a3.368,3.368,0,0,0,2.36.93,3.009,3.009,0,0,0,1.17-.22l0.45-.19a3.205,3.205,0,0,1,2,0l0.45,0.19a2.974,2.974,0,0,0,1.17.22,3.386,3.386,0,0,0,2.36-.93l0.35-.35a3.173,3.173,0,0,1,1.85-.78h0.49a3.4,3.4,0,0,0,2.99-2.03l0.19-.46a3.2,3.2,0,0,1,1.41-1.43l0.45-.19a3.467,3.467,0,0,0,2-3.04v-0.49a3.314,3.314,0,0,1,.77-1.88l0.34-.35A3.479,3.479,0,0,0,1475.53,2741.93Zm-7.53,10.19-0.19.45a1.438,1.438,0,0,1-1.14.78h-0.49a5.15,5.15,0,0,0-3.27,1.37l-0.34.35a1.4,1.4,0,0,1-.95.35,0.949,0.949,0,0,1-.4-0.08l-0.46-.18a4.532,4.532,0,0,0-1.76-.32,4.62,4.62,0,0,0-1.77.32l-0.45.18a0.983,0.983,0,0,1-.4.08,1.4,1.4,0,0,1-.95-0.35l-0.35-.35a5.1,5.1,0,0,0-3.26-1.37h-0.49a1.423,1.423,0,0,1-1.14-.78l-0.19-.45a5.19,5.19,0,0,0-2.5-2.54l-0.45-.19a1.451,1.451,0,0,1-.77-1.16v-0.49a5.242,5.242,0,0,0-1.35-3.31l-0.34-.35a1.474,1.474,0,0,1-.27-1.37l0.19-.46a5.364,5.364,0,0,0,0-3.58l-0.19-.46a1.474,1.474,0,0,1,.27-1.37l0.34-.35a5.265,5.265,0,0,0,1.35-3.31v-0.5a1.466,1.466,0,0,1,.77-1.16l0.45-.19a5.17,5.17,0,0,0,2.5-2.53l0.19-.46a1.445,1.445,0,0,1,1.14-.78h0.49a5.1,5.1,0,0,0,3.26-1.37l0.35-.35a1.441,1.441,0,0,1,.95-0.34,0.955,0.955,0,0,1,.4.07l0.45,0.19a4.822,4.822,0,0,0,1.77.31,4.729,4.729,0,0,0,1.76-.31l0.46-.19a0.955,0.955,0,0,1,.4-0.07,1.441,1.441,0,0,1,.95.34l0.34,0.35a5.128,5.128,0,0,0,3.27,1.37h0.49a1.46,1.46,0,0,1,1.14.78l0.19,0.46a5.17,5.17,0,0,0,2.5,2.53l0.45,0.19a1.479,1.479,0,0,1,.76,1.16v0.5a5.243,5.243,0,0,0,1.36,3.31l0.34,0.35a1.474,1.474,0,0,1,.27,1.37l-0.19.46a5.364,5.364,0,0,0,0,3.58l0.19,0.46a1.474,1.474,0,0,1-.27,1.37l-0.34.35a5.2,5.2,0,0,0-1.36,3.31v0.49a1.463,1.463,0,0,1-.76,1.16l-0.45.19A5.19,5.19,0,0,0,1468,2752.12Zm-17.38-4.6,1.41,1.44,15.35-15.57-1.42-1.43Zm3.88-8.33a3.3,3.3,0,1,0-3.25-3.3A3.28,3.28,0,0,0,1454.5,2739.19Zm0-4.56a1.265,1.265,0,1,1-1.25,1.26A1.259,1.259,0,0,1,1454.5,2734.63Zm9,7.09a3.3,3.3,0,1,0,3.25,3.3A3.28,3.28,0,0,0,1463.5,2741.72Zm0,4.57a1.27,1.27,0,1,1,1.25-1.27A1.261,1.261,0,0,1,1463.5,2746.29Z" transform="translate(-1442.25 -2723.47)"/>
</svg>
