<svg xmlns="http://www.w3.org/2000/svg" width="10.78" height="10.469" viewBox="0 0 10.78 10.469">
  <defs>
    <style>
      .cls-1 {
        fill: #343e4e;
        fill-rule: evenodd;
      }
    </style>
  </defs>
  <path id="Shape_25_copy" data-name="Shape 25 copy" class="cls-1" d="M1443.53,22.6l-1.28-.674a1.193,1.193,0,0,0-1.34.159l-0.33.289a9.17,9.17,0,0,1-1.88-1.212,5.845,5.845,0,0,1-1.25-1.585l0.3-.405a1.181,1.181,0,0,0,.07-1.287l-0.84-1.458a1.156,1.156,0,0,0-.74-0.56,1.186,1.186,0,0,0-.92.146l-1.41.886a1.171,1.171,0,0,0-.54,1.143,9.54,9.54,0,0,0,3.15,5.547,10.106,10.106,0,0,0,5.56,2.7,1.128,1.128,0,0,0,.15.01,1.2,1.2,0,0,0,1.06-.652l0.74-1.47A1.186,1.186,0,0,0,1443.53,22.6Zm-0.38,1.138-0.74,1.469h0a0.2,0.2,0,0,1-.2.108,9.054,9.054,0,0,1-5-2.434,8.631,8.631,0,0,1-2.86-4.964,0.18,0.18,0,0,1,.09-0.184l1.41-.886a0.182,0.182,0,0,1,.1-0.031,0.153,0.153,0,0,1,.05.007,0.213,0.213,0,0,1,.13.092l0.83,1.459a0.19,0.19,0,0,1-.01.216l-0.47.641a0.5,0.5,0,0,0-.06.472,6.447,6.447,0,0,0,1.62,2.2,10.671,10.671,0,0,0,2.43,1.511,0.479,0.479,0,0,0,.52-0.081l0.58-.505a0.192,0.192,0,0,1,.22-0.027l1.28,0.674A0.2,0.2,0,0,1,1443.15,23.734Z" transform="translate(-1433.38 -15.844)"/>
</svg>
