<svg xmlns="http://www.w3.org/2000/svg" width="20.66" height="20.04" viewBox="0 0 20.66 20.04">
  <defs>
    <style>
      .cls-1 {
        fill: #fff;
        fill-rule: evenodd;
        opacity: 0.2;
      }
    </style>
  </defs>
  <path class="cls-1" d="M1355.3,9797.88a1.942,1.942,0,0,1-.24-0.02,19.715,19.715,0,0,1-10.87-5.29c-4.77-4.61-5.93-8.77-6.19-10.83a1.879,1.879,0,0,1,.87-1.82l2.83-1.78a1.932,1.932,0,0,1,1-.28,1.8,1.8,0,0,1,.46.05,1.9,1.9,0,0,1,1.18.89l1.68,2.93a1.887,1.887,0,0,1-.11,2.04l-0.78,1.06,0.14,0.27a11.951,11.951,0,0,0,2.61,3.33,18.892,18.892,0,0,0,3.89,2.5l0.3,0.15,0.91-.8a1.886,1.886,0,0,1,2.13-.25l2.56,1.35a1.889,1.889,0,0,1,.8,2.51l-1.49,2.95A1.907,1.907,0,0,1,1355.3,9797.88Zm-12.6-19.03a0.839,0.839,0,0,0-.48.14l-2.82,1.77a0.877,0.877,0,0,0-.42.85c0.2,1.56,1.17,5.69,5.9,10.25a18.6,18.6,0,0,0,10.31,5.02l0.1,0.01a0.893,0.893,0,0,0,.8-0.49l1.49-2.95a0.9,0.9,0,0,0-.38-1.2l-2.55-1.35a0.868,0.868,0,0,0-.42-0.1,0.944,0.944,0,0,0-.6.22l-1.14,1.02a0.5,0.5,0,0,1-.33.12,0.448,0.448,0,0,1-.2-0.04,21.157,21.157,0,0,1-4.74-2.95,12.352,12.352,0,0,1-3.12-4.22,0.491,0.491,0,0,1,.06-0.47l0.95-1.29a0.919,0.919,0,0,0,.05-0.97l-1.68-2.92a0.868,0.868,0,0,0-.56-0.43A1.379,1.379,0,0,0,1342.7,9778.85Z" transform="translate(-1338 -9777.84)"/>
</svg>
