<svg xmlns="http://www.w3.org/2000/svg" width="17.562" height="25.81" viewBox="0 0 17.562 25.81">
  <defs>
    <style>
      .cls-1 {
        fill: #fff;
        fill-rule: evenodd;
      }
    </style>
  </defs>
  <path class="cls-1" d="M541.366,3468.78a1.245,1.245,0,0,1-.588-0.15c-0.659-.34-0.86-1.09-0.6-2.22l1.657-7.17H539.42a1.9,1.9,0,0,1-1.5-3.4l11.059-11.96c0.785-.86,1.519-1.11,2.175-0.76s0.86,1.09.6,2.22l-1.657,7.17h2.415a1.9,1.9,0,0,1,1.5,3.4l-11.06,11.97A2.307,2.307,0,0,1,541.366,3468.78Zm-2.048-11.52h3.767a1.01,1.01,0,0,1,.777.37,0.994,0.994,0,0,1,.191.84l-1.628,7.05,10.127-10.95c0.023-.03.045-0.05,0.065-0.08h-3.766a1.01,1.01,0,0,1-.778-0.37,0.994,0.994,0,0,1-.191-0.84l1.629-7.05-10.128,10.95C539.36,3457.21,539.338,3457.23,539.318,3457.26Z" transform="translate(-537.188 -3442.97)"/>
</svg>
