<svg xmlns="http://www.w3.org/2000/svg" width="44" height="65.63" viewBox="0 0 44 65.63">
  <defs>
    <style>
      .cls-1 {
        fill: #fff;
        fill-rule: evenodd;
      }
    </style>
  </defs>
  <path class="cls-1" d="M978.321,4698.78l-11.115-5-1.876-5.83c-0.014-.04-0.044-0.07-0.062-0.11,4.478-3.16,7.89-9.53,8.449-15.27,0.712-3.39.6-8.62-2.047-12.3a8.558,8.558,0,0,0-4.949-3.4,2.378,2.378,0,0,0-2.205-2.51c-7.443-.45-12.841,1.1-16.06,4.64-2.92,3.2-3.972,8.05-3.045,14.03a0.984,0.984,0,0,0,.075.22c0.74,5.46,4.1,11.5,8.4,14.57a0.678,0.678,0,0,0-.074.13l-1.915,5.85-10.392,4.95a6.238,6.238,0,0,0-3.535,5.6v14.57a0.99,0.99,0,0,0,1,.99h14.46a0.995,0.995,0,1,0,0-1.99H939.964v-13.57a4.228,4.228,0,0,1,2.4-3.8l6.348-3.03,9.961,21.81a0.987,0.987,0,0,0,.894.58h0.011a0.983,0.983,0,0,0,.9-0.56l3.938-8.14c0.006-.01.009-0.02,0.015-0.03l6.4-13.25a1,1,0,0,0,.076-0.3l6.6,2.96a4.228,4.228,0,0,1,2.487,3.85v13.48h-14.3a1,1,0,1,0,0,1.99h15.3a0.99,0.99,0,0,0,1-.99v-14.48A6.2,6.2,0,0,0,978.321,4698.78Zm-30.953-26.46a0.906,0.906,0,0,0-.091-0.3c-0.47-3.67-.312-8.43,2.65-11.68,2.792-3.07,7.666-4.41,14.466-3.99a0.347,0.347,0,0,1,.309.23,0.369,0.369,0,0,1-.064.4,1,1,0,0,0,.639,1.65,6.572,6.572,0,0,1,4.777,2.8,12.981,12.981,0,0,1,2.033,7.5c-0.766-.45-2.264-1.65-3.729-4.64a1,1,0,0,0-1.7-.14c-5.666,7.92-17.221,5.79-17.339,5.77a0.993,0.993,0,1,0-.38,1.95,22.591,22.591,0,0,0,4.115.34c4,0,10.057-.91,14.252-5.68,2.014,3.43,4.023,4.33,4.649,4.54-0.053.39-.114,0.77-0.191,1.14a0.453,0.453,0,0,0,0,.05c0,0.02-.016.04-0.018,0.06-0.658,7.05-6.241,15.55-12.188,15.55C953.762,4687.87,948.011,4679.32,947.368,4672.32Zm12.187,17.54a9.1,9.1,0,0,0,3.983-.97l1.742,5.41-2.624,3.2h-6.189l-2.637-3.2,1.779-5.43A8.883,8.883,0,0,0,959.555,4689.86Zm-1.989,10.89-0.3-1.26h4.6l-0.3,1.26h-3.993Zm-5.126-5.01,2.645,3.21,0.731,3.03a1,1,0,0,0,.734.72l-1.065,4.86-4.975-10.9Zm7.164,20.84-2.743-6.01,1.717-7.83h1.99l1.942,7.83Zm9.435-19.52-5.173,10.7-1.258-5.07a0.981,0.981,0,0,0,.7-0.71l0.73-3.03,2.641-3.22,2.513,1.13A0.858,0.858,0,0,0,969.039,4697.06ZM975,4708.71a1,1,0,0,0,0-2h-3.212a1,1,0,0,0,0,2H975Z" transform="translate(-937.969 -4654.28)"/>
</svg>
