<svg xmlns="http://www.w3.org/2000/svg" width="60" height="47" viewBox="0 0 60 47">
  <defs>
    <style>
      .cls-1 {
        fill: #fff;
        fill-rule: evenodd;
      }
    </style>
  </defs>
  <path class="cls-1" d="M1361.52,4680.67a1.006,1.006,0,1,0,1.74-1.01l-1.11-1.93a0.993,0.993,0,0,0-1.37-.37,1.008,1.008,0,0,0-.37,1.37Zm28.6-.15a0.993,0.993,0,0,0,.5.14,1.007,1.007,0,0,0,.87-0.51l1.11-1.93a1.02,1.02,0,0,0-.37-1.38,1,1,0,0,0-1.37.37l-1.11,1.93A1.011,1.011,0,0,0,1390.12,4680.52Zm-11.11,10.62a3.01,3.01,0,1,0-3.01,3.02A3.022,3.022,0,0,0,1379.01,4691.14Zm-3.01.99a1,1,0,1,1,.98-0.99A0.986,0.986,0,0,1,1376,4692.13Zm26.99-14.96a3.01,3.01,0,0,0-2.41,4.8l0.17,0.24-14.26,11.14-9.57-21.75,0.27-.12a3.01,3.01,0,1,0-2.38,0l0.27,0.12-9.54,21.67-14.29-11.06,0.16-.23a3.056,3.056,0,0,0,.6-1.79,3.005,3.005,0,1,0-3.01,3.03,0.3,0.3,0,0,0,.1-0.02l0.13-.02,0.22-.02,9.4,24.41v0.06c0.05,3.47,8.92,5.05,17.14,5.05s17.1-1.58,17.14-5.05v-0.06l9.41-24.41,0.22,0.02,0.12,0.02a0.44,0.44,0,0,0,.1.02A3.025,3.025,0,0,0,1402.99,4677.17Zm-53.99,4.02a1,1,0,1,1,.99-1A0.994,0.994,0,0,1,1349,4681.19Zm40.03,22.95-0.6-.18a43.313,43.313,0,0,0-9.66-1.37l-0.79-.04,7.7-6.02Zm-14.02-35.42a0.985,0.985,0,1,1,.99.99A0.994,0.994,0,0,1,1375.01,4668.72Zm0.99,5.81,8.84,20.09-8.73,6.83-8.92-6.92Zm-9.65,21.91,7.88,6.1-0.8.04a45.567,45.567,0,0,0-9.87,1.38l-0.6.17Zm-13.72-10.6,12.07,9.33-4.52,10.26Zm38.49,21.81a1.5,1.5,0,0,1-.55.57,14.468,14.468,0,0,1-4.79,1.6,51.111,51.111,0,0,1-9.78.84,53.172,53.172,0,0,1-9.86-.84,16.107,16.107,0,0,1-4.75-1.52,1.269,1.269,0,0,1-.51-0.5l-0.05-.11,0.05-.12a1.949,1.949,0,0,1,.98-0.83c0.04-.03.09-0.05,0.16-0.09a28.322,28.322,0,0,1,9-1.9c1.43-.12,2.95-0.18,4.5-0.19l0.48-.01,0.74,0.01c1.61,0.02,3.14.09,4.56,0.22a29.338,29.338,0,0,1,8.75,1.84h0.01l0.07,0.03a2.2,2.2,0,0,1,.98.75l0.06,0.12Zm0.69-2.21-4.49-10.18,12.01-9.38Zm11.18-24.25a1,1,0,0,1,0-1.99A1,1,0,0,1,1402.99,4681.19Z" transform="translate(-1346 -4665.69)"/>
</svg>
