<svg xmlns="http://www.w3.org/2000/svg" width="66" height="72" viewBox="0 0 66 72">
  <defs>
    <style>
      .cls-1 {
        fill: #fff;
        fill-rule: evenodd;
      }
    </style>
  </defs>
  <path class="cls-1" d="M534.261,4701.66a0.994,0.994,0,0,0,.991-0.92c0.21-2.66.771-5.36,1.191-5.79a5.765,5.765,0,0,1,2.955-.6h0.074v4.22a1,1,0,0,0,.993,1h8.25a1,1,0,0,0,.994-1v-4.22h0.074a5.729,5.729,0,0,1,2.953.59c0.43,0.44.986,3.14,1.192,5.79a0.993,0.993,0,0,0,.991.93,0.97,0.97,0,0,0,.709-0.3,13.513,13.513,0,0,0,3.765-10.38,13.289,13.289,0,0,0-4.782-9.3,33.939,33.939,0,0,0,.85-11.67c-1.427-10.17-9.919-16.63-10.28-16.9a0.141,0.141,0,0,1-.05-0.03c-0.055-.03-0.114-0.05-0.175-0.08a1.159,1.159,0,0,0-.553-0.06,1.118,1.118,0,0,0-.177.06,1.21,1.21,0,0,0-.18.09c-0.014.01-.032,0.01-0.047,0.02-0.36.27-8.852,6.73-10.279,16.9a33.939,33.939,0,0,0,.85,11.67,13.29,13.29,0,0,0-4.781,9.31,13.5,13.5,0,0,0,3.764,10.37A0.968,0.968,0,0,0,534.261,4701.66Zm13.46-4.1h-6.262v-3.21h6.262v3.21Zm9.689-6.43a11.532,11.532,0,0,1-1.769,7.01c-0.276-1.89-.773-4.04-1.643-4.75a5.488,5.488,0,0,0-2.776-.98,72.71,72.71,0,0,0,2.849-8.53A11.3,11.3,0,0,1,557.41,4691.13Zm-12.819-35.92a30.3,30.3,0,0,1,5.145,5.78H539.45A30.321,30.321,0,0,1,544.591,4655.21Zm-8.9,15.08a21.14,21.14,0,0,1,2.527-7.29h12.756a21.166,21.166,0,0,1,2.522,7.29c1.136,8.11-3.278,19.36-4.4,22.05h-3.511v-6.3a0.994,0.994,0,1,0-1.987,0v6.3h-3.51C538.966,4689.66,534.551,4678.41,535.688,4670.29Zm-3.916,20.84a11.294,11.294,0,0,1,3.338-7.25,72.71,72.71,0,0,0,2.849,8.53,5.467,5.467,0,0,0-2.768.98c-0.87.71-1.37,2.86-1.649,4.76A11.566,11.566,0,0,1,531.772,4691.13Zm12.818-12.54a5.815,5.815,0,1,0-5.744-5.81A5.787,5.787,0,0,0,544.59,4678.59Zm0-9.62a3.805,3.805,0,1,1-3.757,3.81A3.789,3.789,0,0,1,544.59,4668.97Zm-4.125,34.58a1,1,0,0,0-.993,1.01v14.79a7.029,7.029,0,0,0-11.478.8,4.274,4.274,0,0,0-2.635-.63c0-.09,0-0.18,0-0.27a6.934,6.934,0,1,0-13.866,0,0.994,0.994,0,1,0,1.988,0,4.945,4.945,0,1,1,9.89,0,5.036,5.036,0,0,1-.2,1.4,1.026,1.026,0,0,0,.33,1.07,1,1,0,0,0,1.1.1,2.312,2.312,0,0,1,2.948.57,0.99,0.99,0,0,0,1.694-.28,5.087,5.087,0,0,1,9.868,1.82,1,1,0,0,0,.994,1,0.546,0.546,0,0,1,.357,0,1,1,0,0,0,.994-1v-19.37A1,1,0,0,0,540.465,4703.55Zm29.307,7.57a7.8,7.8,0,0,0-7.738,7.84c0,0.06,0,.13,0,0.2a4.691,4.691,0,0,0-3.5.97,5.84,5.84,0,0,0-8.825-.32v-15.25a0.994,0.994,0,1,0-1.988,0v19.37a1,1,0,0,0,.994,1,0.549,0.549,0,0,1,.358,0,1,1,0,0,0,.993-1,3.945,3.945,0,0,1,3.913-3.97,3.882,3.882,0,0,1,3.507,2.22,1,1,0,0,0,.815.56,0.983,0.983,0,0,0,.89-0.42,2.712,2.712,0,0,1,3.565-.84,0.991,0.991,0,0,0,1.082-.08,1.02,1.02,0,0,0,.358-1.04,5.86,5.86,0,0,1-.175-1.4,5.751,5.751,0,1,1,11.5,0,0.994,0.994,0,1,0,1.988,0A7.8,7.8,0,0,0,569.772,4711.12Zm-25.182-4.18a1,1,0,0,0-.993,1.01v9.96a0.994,0.994,0,1,0,1.987,0v-9.96A1,1,0,0,0,544.59,4706.94Z" transform="translate(-511.5 -4652.94)"/>
</svg>
