<svg xmlns="http://www.w3.org/2000/svg" width="20.94" height="43.9" viewBox="0 0 20.94 43.9">
  <defs>
    <style>
      .cls-1 {
        fill: #fff;
        fill-rule: evenodd;
      }
    </style>
  </defs>
  <path class="cls-1" d="M1208.64,3763.67c-0.01-.01-0.03-0.02-0.04-0.03a0.991,0.991,0,0,0-.17-0.11,0.827,0.827,0,0,0-.16-0.09,1.046,1.046,0,0,0-.17-0.04,1.366,1.366,0,0,0-.19-0.02,1.127,1.127,0,0,0-.18.03,1.056,1.056,0,0,0-.19.06,0.109,0.109,0,0,1-.05.01c-0.28.15-6.83,3.66-8.9,10.54a23.283,23.283,0,0,0-.67,7.95,9.307,9.307,0,0,0-4.21,5.9,9.669,9.669,0,0,0,1.51,7.71,0.956,0.956,0,0,0,.9.41,0.2,0.2,0,0,0,.08-0.01,0.975,0.975,0,0,0,.77-0.74,13.156,13.156,0,0,1,1.28-3.61,3.229,3.229,0,0,1,1.62-.08l-0.39,2.56a0.988,0.988,0,0,0,.81,1.14l2.8,0.45,2.8,0.46a1.129,1.129,0,0,0,.26,0,0.976,0.976,0,0,0,.87-0.83l0.39-2.57a3.685,3.685,0,0,1,1.5.55,12.245,12.245,0,0,1,.15,3.89,0.984,0.984,0,0,0,1.08,1.07,0.956,0.956,0,0,0,.48-0.19,9.555,9.555,0,0,0,1.54-13.8,23.285,23.285,0,0,0,1.77-7.77C1214.03,3769.31,1208.86,3763.9,1208.64,3763.67Zm-11.38,26.23a4.778,4.778,0,0,0-1.49,2.41,7.6,7.6,0,0,1-.15-3.99,7.4,7.4,0,0,1,2.5-4.07,50.618,50.618,0,0,0,.9,5.25A3.7,3.7,0,0,0,1197.26,3789.9Zm6.14,3.84-1.83-.3,0.24-1.58,1.83,0.3,1.83,0.29-0.24,1.59Zm9.03-2.69a7.53,7.53,0,0,1-1.35,3.74,4.853,4.853,0,0,0-.68-2.76,3.782,3.782,0,0,0-1.56-.94,51.019,51.019,0,0,0,2.44-4.7A7.477,7.477,0,0,1,1212.43,3791.05Zm-0.47-14.58c-0.07,5.39-3.97,12.24-5.15,14.18l-2.86-.46-2.86-.46c-0.54-2.23-2.18-9.96-.63-15.12,1.47-4.88,5.67-7.94,7.29-8.97C1208.97,3767.12,1212.04,3771.35,1211.96,3776.47Zm-5.34-3.53a4.143,4.143,0,0,0-3.16.76,4.29,4.29,0,0,0-1.7,2.81,4.379,4.379,0,0,0,.77,3.21,4.216,4.216,0,0,0,2.77,1.72,4.152,4.152,0,0,0,1.11.03,4.252,4.252,0,0,0,3.74-3.6h0a4.307,4.307,0,0,0-.76-3.21A4.216,4.216,0,0,0,1206.62,3772.94Zm1.6,4.62a2.276,2.276,0,0,1-4.11.99,2.314,2.314,0,0,1,1.6-3.67,2.413,2.413,0,0,1,.6.02,2.292,2.292,0,0,1,1.49.93A2.356,2.356,0,0,1,1208.22,3777.56Zm-5.28,19.31a3.612,3.612,0,0,0-4.14,3.05c-0.45,2.9,1.74,6.72,1.83,6.88a1,1,0,0,0,.7.48,1.068,1.068,0,0,0,.25.01,0.989,0.989,0,0,0,.56-0.25c0.34-.32,3.38-3.18,3.81-5.96A3.684,3.684,0,0,0,1202.94,3796.87Zm1.08,3.89a9.083,9.083,0,0,1-2.29,3.86,8.984,8.984,0,0,1-1-4.39,1.675,1.675,0,0,1,1.47-1.41,2.062,2.062,0,0,1,.43.01A1.7,1.7,0,0,1,1204.02,3800.76Z" transform="translate(-1193.47 -3763.38)"/>
</svg>
