<?xml version="1.0" encoding="utf-8"?>
<!-- Generator: Adobe Illustrator 19.0.0, SVG Export Plug-In . SVG Version: 6.00 Build 0)  -->
<svg version="1.1" id="Layer_1" xmlns="http://www.w3.org/2000/svg" xmlns:xlink="http://www.w3.org/1999/xlink" x="0px" y="0px"
	 viewBox="1531 531 18 18" style="enable-background:new 1531 531 18 18;" xml:space="preserve">
<style type="text/css">
	.st0{fill:url(#SVGID_1_);}
	.st1{fill:url(#SVGID_2_);}
	.st2{fill:#F3F3F3;}
	.st3{fill:#FFFFFF;}
	.st4{fill:#E2E2E2;}
	.st5{fill:url(#SVGID_3_);fill-opacity:0.2;}
	.st6{filter:url(#e);}
	.st7{opacity:5.000000e-002;}
	.st8{fill:#CD151E;}
	.st9{fill:#FA5153;}
	.st10{fill:#ACACAC;}
	.st11{fill:#EEEEEE;}
</style>
<filter  width="200%" height="200%" x="-50%" y="-50%" filterUnits="objectBoundingBox" id="e">
	<feOffset  dy="1" in="SourceAlpha" result="shadowOffsetOuter1"></feOffset>
	<feGaussianBlur  in="shadowOffsetOuter1" stdDeviation="2" result="shadowBlurOuter1"></feGaussianBlur>
	<feColorMatrix  values="0 0 0 0 0 0 0 0 0 0 0 0 0 0 0 0 0 0 13 0" in="shadowBlurOuter1" result="shadowMatrixOuter1">
		</feColorMatrix>
	<feMerge>
		<feMergeNode  in="shadowMatrixOuter1"></feMergeNode>
		<feMergeNode  in="SourceGraphic"></feMergeNode>
	</feMerge>
</filter>
<linearGradient id="SVGID_1_" gradientUnits="userSpaceOnUse" x1="580.3802" y1="1079.7814" x2="580.3802" y2="1079.7888" gradientTransform="matrix(2421.875 0 0 -2421.875 -1404068.5 2615644.5)">
	<stop  offset="0.25" style="stop-color:#DBDBDA"/>
	<stop  offset="1" style="stop-color:#FFFFFF"/>
</linearGradient>
<circle class="st0" cx="1540" cy="540" r="9"/>
<radialGradient id="SVGID_2_" cx="580.3711" cy="1079.8091" r="4.536055e-003" gradientTransform="matrix(2240.2344 0 0 -2240.2344 -1298626 2419563.5)" gradientUnits="userSpaceOnUse">
	<stop  offset="0" style="stop-color:#2ABCE1"/>
	<stop  offset="0.1136" style="stop-color:#2ABBE1"/>
	<stop  offset="1" style="stop-color:#3375F8"/>
</radialGradient>
<circle class="st1" cx="1540" cy="540" r="8.3"/>
<path class="st2" d="M1540,533.7c-0.1,0-0.1,0-0.1-0.1v-1.5c0-0.1,0-0.1,0.1-0.1c0.1,0,0.1,0,0.1,0.1v1.5
	C1540.1,533.7,1540.1,533.7,1540,533.7L1540,533.7z"/>
<path class="st3" d="M1540,533.7c-0.1,0-0.1,0-0.1-0.1v-1.5c0-0.1,0-0.1,0.1-0.1c0.1,0,0.1,0,0.1,0.1v1.5
	C1540.1,533.7,1540.1,533.7,1540,533.7z M1540,532C1540,532,1539.9,532.1,1540,532l-0.1,1.6c0,0,0,0.1,0.1,0.1c0,0,0.1,0,0.1-0.1
	L1540,532C1540.1,532.1,1540.1,532,1540,532z"/>
<path class="st2" d="M1540.7,532.9c-0.1,0-0.1,0-0.1-0.1l0-0.7c0-0.1,0.1-0.1,0.1-0.1s0.1,0,0.1,0.1l0,0.7
	C1540.8,532.9,1540.8,532.9,1540.7,532.9L1540.7,532.9z"/>
<path class="st3" d="M1540.7,532.9c-0.1,0-0.1-0.1-0.1-0.1l0-0.7c0-0.1,0.1-0.1,0.1-0.1c0.1,0,0.1,0.1,0.1,0.1l0,0.7
	C1540.8,532.9,1540.8,532.9,1540.7,532.9z M1540.8,532.1C1540.7,532.1,1540.7,532.1,1540.8,532.1l-0.1,0.7c0,0,0,0.1,0.1,0.1
	c0,0,0.1,0,0.1-0.1L1540.8,532.1C1540.9,532.1,1540.8,532.1,1540.8,532.1L1540.8,532.1z"/>
<path class="st2" d="M1541.2,533.8c-0.1,0-0.1-0.1-0.1-0.1l0.3-1.4c0-0.1,0.1-0.1,0.1-0.1c0.1,0,0.1,0.1,0.1,0.1l-0.3,1.4
	C1541.4,533.8,1541.3,533.8,1541.2,533.8L1541.2,533.8z"/>
<path class="st3" d="M1541.2,533.8c-0.1,0-0.1-0.1-0.1-0.1l0.3-1.4c0-0.1,0.1-0.1,0.1-0.1c0.1,0,0.1,0.1,0.1,0.1l-0.3,1.4
	C1541.4,533.8,1541.3,533.8,1541.2,533.8z M1541.6,532.2c0,0-0.1,0-0.1,0.1l-0.3,1.4c0,0,0,0.1,0.1,0.1c0,0,0.1,0,0.1-0.1l0.3-1.4
	C1541.7,532.3,1541.6,532.2,1541.6,532.2z"/>
<path class="st2" d="M1542.1,533.2c-0.1,0-0.1-0.1-0.1-0.1c0,0,0,0,0,0l0.2-0.6c0-0.1,0.1-0.1,0.1-0.1c0.1,0,0.1,0.1,0.1,0.1
	l-0.2,0.6C1542.2,533.2,1542.1,533.2,1542.1,533.2L1542.1,533.2z"/>
<path class="st3" d="M1542.1,533.2c-0.1,0-0.1-0.1-0.1-0.1l0.2-0.6c0-0.1,0.1-0.1,0.1-0.1c0.1,0,0.1,0.1,0.1,0.1l-0.2,0.6
	C1542.2,533.2,1542.2,533.2,1542.1,533.2L1542.1,533.2z M1542.3,532.4c0,0-0.1,0-0.1,0.1l-0.2,0.6c0,0,0,0.1,0.1,0.1
	c0,0,0.1,0,0.1-0.1l0.2-0.6C1542.4,532.4,1542.4,532.4,1542.3,532.4L1542.3,532.4z"/>
<path class="st2" d="M1542.4,534.2c-0.1,0-0.1-0.1-0.1-0.1l0.6-1.4c0,0,0.1-0.1,0.1,0c0.1,0,0.1,0.1,0.1,0.1l-0.6,1.4
	C1542.5,534.2,1542.5,534.2,1542.4,534.2L1542.4,534.2z"/>
<path class="st3" d="M1542.4,534.2c-0.1,0-0.1-0.1-0.1-0.1l0.6-1.4c0-0.1,0.1-0.1,0.1-0.1c0.1,0,0.1,0.1,0.1,0.1l-0.6,1.4
	C1542.6,534.2,1542.5,534.2,1542.4,534.2z M1543.1,532.7c0,0-0.1,0-0.1,0l-0.6,1.4c0,0,0,0.1,0.1,0.1c0,0,0.1,0,0.1,0l0.6-1.4
	C1543.1,532.7,1543.1,532.7,1543.1,532.7L1543.1,532.7z"/>
<path class="st2" d="M1543.4,533.7c0,0-0.1-0.1,0-0.1l0.3-0.6c0,0,0.1-0.1,0.1,0c0,0,0.1,0.1,0,0.1l-0.3,0.6
	C1543.5,533.7,1543.4,533.8,1543.4,533.7L1543.4,533.7z"/>
<path class="st3" d="M1543.4,533.7c-0.1,0-0.1-0.1,0-0.1l0.3-0.6c0-0.1,0.1-0.1,0.1,0c0.1,0,0.1,0.1,0,0.1l-0.3,0.6
	C1543.5,533.7,1543.4,533.8,1543.4,533.7L1543.4,533.7z M1543.8,533c0,0-0.1,0-0.1,0l-0.3,0.6c0,0,0,0.1,0,0.1c0,0,0.1,0,0.1,0
	l0.3-0.6C1543.8,533.1,1543.8,533,1543.8,533z"/>
<path class="st2" d="M1543.5,534.8c0,0-0.1-0.1,0-0.1l0.8-1.2c0,0,0.1-0.1,0.1,0c0,0,0.1,0.1,0,0.1l-0.8,1.2
	C1543.6,534.8,1543.6,534.8,1543.5,534.8z"/>
<path class="st3" d="M1543.5,534.8c0,0-0.1-0.1,0-0.2l0.8-1.2c0,0,0.1-0.1,0.2,0c0,0,0.1,0.1,0,0.2l-0.8,1.2
	C1543.6,534.8,1543.6,534.8,1543.5,534.8z M1544.5,533.4c0,0-0.1,0-0.1,0l-0.8,1.2c0,0,0,0.1,0,0.1c0,0,0.1,0,0.1,0l0.8-1.2
	C1544.5,533.5,1544.5,533.4,1544.5,533.4L1544.5,533.4z"/>
<path class="st2" d="M1544.5,534.5c0,0-0.1-0.1,0-0.1l0.4-0.5c0,0,0.1,0,0.1,0c0,0,0.1,0.1,0,0.1l-0.4,0.5
	C1544.7,534.5,1544.6,534.6,1544.5,534.5L1544.5,534.5z"/>
<path class="st3" d="M1544.5,534.5c0,0-0.1-0.1,0-0.2l0.4-0.5c0,0,0.1-0.1,0.2,0c0,0,0.1,0.1,0,0.2l-0.4,0.5
	C1544.7,534.6,1544.6,534.6,1544.5,534.5z M1545.1,533.9c0,0-0.1,0-0.1,0l-0.4,0.5c0,0,0,0.1,0,0.1c0,0,0.1,0,0.1,0l0.4-0.5
	C1545.1,533.9,1545.1,533.9,1545.1,533.9L1545.1,533.9z"/>
<path class="st2" d="M1544.5,535.6c0,0,0-0.1,0-0.1l1-1c0,0,0.1,0,0.1,0c0,0,0,0.1,0,0.1l-1,1
	C1544.6,535.6,1544.5,535.6,1544.5,535.6z"/>
<path class="st3" d="M1544.5,535.6c0,0,0-0.1,0-0.2l1-1c0,0,0.1,0,0.2,0c0,0,0,0.1,0,0.2l-1,1
	C1544.6,535.6,1544.5,535.6,1544.5,535.6L1544.5,535.6z M1545.7,534.4c0,0-0.1,0-0.1,0l-1,1c0,0,0,0.1,0,0.1c0,0,0.1,0,0.1,0l1-1
	C1545.7,534.5,1545.7,534.4,1545.7,534.4L1545.7,534.4z"/>
<path class="st2" d="M1545.5,535.5c0,0,0-0.1,0-0.1l0.5-0.4c0,0,0.1,0,0.1,0c0,0,0,0.1,0,0.1l-0.5,0.4
	C1545.6,535.6,1545.6,535.6,1545.5,535.5z"/>
<path class="st3" d="M1545.5,535.5c0,0,0-0.1,0-0.2l0.5-0.4c0,0,0.1,0,0.2,0c0,0,0,0.1,0,0.2l-0.5,0.4
	C1545.6,535.6,1545.6,535.6,1545.5,535.5L1545.5,535.5z M1546.2,535c0,0-0.1,0-0.1,0l-0.5,0.4c0,0,0,0.1,0,0.1c0,0,0.1,0,0.1,0
	l0.5-0.4C1546.2,535.1,1546.2,535,1546.2,535z"/>
<path class="st2" d="M1545.3,536.5c0,0,0-0.1,0-0.1l1.2-0.8c0,0,0.1,0,0.1,0c0,0,0,0.1,0,0.1l-1.2,0.8
	C1545.4,536.6,1545.3,536.6,1545.3,536.5z"/>
<path class="st3" d="M1545.2,536.5c0,0,0-0.1,0-0.2l1.2-0.8c0,0,0.1,0,0.2,0c0,0,0,0.1,0,0.2l-1.2,0.8
	C1545.4,536.6,1545.3,536.6,1545.2,536.5L1545.2,536.5z M1546.6,535.6c0,0-0.1-0.1-0.1,0l-1.2,0.8c0,0-0.1,0.1,0,0.1
	c0,0,0.1,0.1,0.1,0l1.2-0.8C1546.7,535.7,1546.7,535.6,1546.6,535.6L1546.6,535.6z"/>
<path class="st2" d="M1546.3,536.7c0,0,0-0.1,0-0.1l0.6-0.3c0,0,0.1,0,0.1,0c0,0,0,0.1,0,0.1l-0.6,0.3
	C1546.4,536.7,1546.3,536.7,1546.3,536.7L1546.3,536.7z"/>
<path class="st3" d="M1546.3,536.7c0-0.1,0-0.1,0-0.1l0.6-0.3c0,0,0.1,0,0.1,0c0,0.1,0,0.1,0,0.1l-0.6,0.3
	C1546.4,536.8,1546.3,536.7,1546.3,536.7L1546.3,536.7z M1547,536.3c0,0-0.1-0.1-0.1,0l-0.6,0.3c0,0-0.1,0.1,0,0.1
	c0,0,0.1,0.1,0.1,0l0.6-0.3C1547,536.4,1547.1,536.3,1547,536.3z"/>
<path class="st2" d="M1545.8,537.6c0-0.1,0-0.1,0.1-0.1l1.4-0.6c0,0,0.1,0,0.1,0.1c0,0.1,0,0.1-0.1,0.1l-1.4,0.6
	C1545.9,537.7,1545.9,537.7,1545.8,537.6z"/>
<path class="st3" d="M1545.8,537.6c0-0.1,0-0.1,0.1-0.1l1.4-0.6c0.1,0,0.1,0,0.1,0.1c0,0.1,0,0.1-0.1,0.1l-1.4,0.6
	C1545.9,537.7,1545.8,537.7,1545.8,537.6L1545.8,537.6z M1547.4,537c0,0-0.1-0.1-0.1-0.1l-1.4,0.6c0,0-0.1,0.1,0,0.1
	c0,0,0.1,0.1,0.1,0.1l1.4-0.6C1547.4,537.1,1547.4,537,1547.4,537z"/>
<path class="st2" d="M1546.8,538c0-0.1,0-0.1,0.1-0.1l0.6-0.2c0,0,0.1,0,0.1,0.1c0,0.1,0,0.1-0.1,0.1l-0.6,0.2
	C1546.9,538,1546.8,538,1546.8,538L1546.8,538z"/>
<path class="st3" d="M1546.8,538c0-0.1,0-0.1,0.1-0.1l0.6-0.2c0.1,0,0.1,0,0.1,0.1c0,0.1,0,0.1-0.1,0.1l-0.6,0.2
	C1546.9,538.1,1546.8,538,1546.8,538z M1547.6,537.7c0,0-0.1-0.1-0.1-0.1l-0.6,0.2c0,0-0.1,0.1-0.1,0.1c0,0,0.1,0.1,0.1,0.1l0.6-0.2
	C1547.6,537.8,1547.6,537.8,1547.6,537.7L1547.6,537.7z"/>
<path class="st2" d="M1546.2,538.8c0-0.1,0-0.1,0.1-0.1l1.4-0.3c0.1,0,0.1,0,0.1,0.1c0,0.1,0,0.1-0.1,0.1l-1.4,0.3
	C1546.3,538.9,1546.2,538.9,1546.2,538.8L1546.2,538.8z"/>
<path class="st3" d="M1546.2,538.8c0-0.1,0-0.1,0.1-0.1l1.4-0.3c0.1,0,0.1,0,0.1,0.1c0,0.1,0,0.1-0.1,0.1l-1.4,0.3
	C1546.2,538.9,1546.2,538.9,1546.2,538.8L1546.2,538.8z M1547.8,538.5c0,0-0.1-0.1-0.1-0.1l-1.4,0.3c0,0-0.1,0.1-0.1,0.1
	c0,0,0.1,0.1,0.1,0.1l1.4-0.3C1547.8,538.6,1547.8,538.5,1547.8,538.5L1547.8,538.5z"/>
<path class="st2" d="M1547.1,539.3c0-0.1,0-0.1,0.1-0.1l0.6-0.1c0.1,0,0.1,0,0.1,0.1s0,0.1-0.1,0.1l-0.6,0.1
	C1547.2,539.4,1547.1,539.4,1547.1,539.3L1547.1,539.3z"/>
<path class="st3" d="M1547.1,539.3c0-0.1,0-0.1,0.1-0.1l0.6-0.1c0.1,0,0.1,0,0.1,0.1c0,0.1,0,0.1-0.1,0.1l-0.6,0.1
	C1547.1,539.4,1547.1,539.4,1547.1,539.3L1547.1,539.3z M1547.9,539.2c0,0-0.1-0.1-0.1-0.1l-0.6,0.1c0,0-0.1,0.1-0.1,0.1
	c0,0,0.1,0.1,0.1,0.1l0.6-0.1C1547.9,539.3,1547.9,539.3,1547.9,539.2L1547.9,539.2z"/>
<path class="st2" d="M1546.3,540c0-0.1,0-0.1,0.1-0.1h1.5c0.1,0,0.1,0,0.1,0.1s0,0.1-0.1,0.1h-1.5
	C1546.3,540.1,1546.3,540.1,1546.3,540z"/>
<path class="st3" d="M1546.3,540c0-0.1,0-0.1,0.1-0.1h1.5c0.1,0,0.1,0,0.1,0.1s0,0.1-0.1,0.1h-1.5
	C1546.3,540.1,1546.3,540.1,1546.3,540z M1548,540C1548,540,1547.9,539.9,1548,540l-1.6-0.1c0,0-0.1,0-0.1,0.1c0,0,0,0.1,0.1,0.1
	L1548,540C1547.9,540.1,1548,540.1,1548,540L1548,540z"/>
<path class="st2" d="M1547.1,540.7c0-0.1,0-0.1,0.1-0.1l0.7,0c0.1,0,0.1,0.1,0.1,0.1c0,0.1,0,0.1-0.1,0.1l-0.7,0
	C1547.1,540.8,1547.1,540.8,1547.1,540.7L1547.1,540.7z"/>
<path class="st3" d="M1547.1,540.7c0-0.1,0.1-0.1,0.1-0.1l0.7,0c0.1,0,0.1,0.1,0.1,0.1c0,0.1-0.1,0.1-0.1,0.1l-0.7,0
	C1547.1,540.8,1547.1,540.8,1547.1,540.7L1547.1,540.7z M1547.9,540.8C1547.9,540.7,1547.9,540.7,1547.9,540.8l-0.7-0.1
	c0,0-0.1,0-0.1,0.1c0,0,0,0.1,0.1,0.1L1547.9,540.8C1547.9,540.9,1547.9,540.8,1547.9,540.8z"/>
<path class="st2" d="M1546.2,541.2c0-0.1,0.1-0.1,0.1-0.1l1.4,0.3c0.1,0,0.1,0.1,0.1,0.1c0,0.1-0.1,0.1-0.1,0.1l-1.4-0.3
	C1546.2,541.4,1546.2,541.3,1546.2,541.2L1546.2,541.2z"/>
<path class="st3" d="M1546.2,541.2c0-0.1,0.1-0.1,0.1-0.1l1.4,0.3c0.1,0,0.1,0.1,0.1,0.1c0,0.1-0.1,0.1-0.1,0.1l-1.4-0.3
	C1546.2,541.4,1546.2,541.3,1546.2,541.2L1546.2,541.2z M1547.8,541.6c0,0,0-0.1-0.1-0.1l-1.4-0.3c0,0-0.1,0-0.1,0.1
	c0,0,0,0.1,0.1,0.1l1.4,0.3C1547.7,541.7,1547.8,541.6,1547.8,541.6z"/>
<path class="st2" d="M1546.8,542.1c0-0.1,0.1-0.1,0.1-0.1c0,0,0,0,0,0l0.6,0.2c0.1,0,0.1,0.1,0.1,0.1c0,0.1-0.1,0.1-0.1,0.1
	c0,0,0,0,0,0l-0.6-0.2C1546.8,542.2,1546.8,542.1,1546.8,542.1L1546.8,542.1z"/>
<path class="st3" d="M1546.8,542.1c0-0.1,0.1-0.1,0.1-0.1l0.6,0.2c0.1,0,0.1,0.1,0.1,0.1c0,0.1-0.1,0.1-0.1,0.1l-0.6-0.2
	C1546.8,542.2,1546.8,542.2,1546.8,542.1L1546.8,542.1z M1547.6,542.3c0,0,0-0.1-0.1-0.1l-0.6-0.2c0,0-0.1,0-0.1,0.1
	c0,0,0,0.1,0.1,0.1l0.6,0.2C1547.6,542.4,1547.6,542.4,1547.6,542.3z"/>
<path class="st2" d="M1545.8,542.4c0-0.1,0.1-0.1,0.1-0.1l1.4,0.6c0,0,0.1,0.1,0.1,0.1c0,0.1-0.1,0.1-0.1,0.1l-1.4-0.6
	C1545.8,542.5,1545.8,542.5,1545.8,542.4L1545.8,542.4z"/>
<path class="st3" d="M1545.8,542.4c0-0.1,0.1-0.1,0.1-0.1l1.4,0.6c0.1,0,0.1,0.1,0.1,0.1c0,0.1-0.1,0.1-0.1,0.1l-1.4-0.6
	C1545.8,542.5,1545.8,542.5,1545.8,542.4z M1547.3,543.1c0,0,0-0.1,0-0.1l-1.4-0.6c0,0-0.1,0-0.1,0.1c0,0,0,0.1,0,0.1l1.4,0.6
	C1547.3,543.1,1547.3,543.1,1547.3,543.1z"/>
<path class="st2" d="M1546.3,543.4c0,0,0.1-0.1,0.1,0l0.6,0.3c0,0,0.1,0.1,0,0.1c0,0-0.1,0.1-0.1,0l-0.6-0.3
	C1546.3,543.5,1546.2,543.4,1546.3,543.4z"/>
<path class="st3" d="M1546.3,543.4c0-0.1,0.1-0.1,0.1,0l0.6,0.3c0.1,0,0.1,0.1,0,0.1c0,0.1-0.1,0.1-0.1,0l-0.6-0.3
	C1546.3,543.5,1546.2,543.4,1546.3,543.4z M1547,543.8c0,0,0-0.1,0-0.1l-0.6-0.3c0,0-0.1,0-0.1,0c0,0,0,0.1,0,0.1l0.6,0.3
	C1546.9,543.8,1547,543.8,1547,543.8L1547,543.8z"/>
<path class="st2" d="M1545.2,543.5c0,0,0.1-0.1,0.1,0l1.2,0.8c0,0,0.1,0.1,0,0.1c0,0-0.1,0.1-0.1,0l-1.2-0.8
	C1545.2,543.6,1545.2,543.6,1545.2,543.5z"/>
<path class="st3" d="M1545.2,543.5c0,0,0.1-0.1,0.2,0l1.2,0.8c0,0,0.1,0.1,0,0.2c0,0-0.1,0.1-0.2,0l-1.2-0.8
	C1545.2,543.6,1545.2,543.6,1545.2,543.5z M1546.6,544.4c0,0,0-0.1,0-0.1l-1.2-0.8c0,0-0.1,0-0.1,0s0,0.1,0,0.1l1.2,0.8
	C1546.5,544.5,1546.6,544.5,1546.6,544.4L1546.6,544.4z"/>
<path class="st2" d="M1545.5,544.5c0,0,0.1-0.1,0.1,0l0.5,0.4c0,0,0,0.1,0,0.1c0,0-0.1,0.1-0.1,0l-0.5-0.4
	C1545.5,544.6,1545.5,544.6,1545.5,544.5z"/>
<path class="st3" d="M1545.5,544.5c0,0,0.1-0.1,0.2,0l0.5,0.4c0,0,0.1,0.1,0,0.2c0,0-0.1,0.1-0.2,0l-0.5-0.4
	C1545.5,544.6,1545.5,544.6,1545.5,544.5z M1546.2,545c0,0,0-0.1,0-0.1l-0.5-0.4c0,0-0.1,0-0.1,0c0,0,0,0.1,0,0.1l0.5,0.4
	C1546.1,545.1,1546.1,545.1,1546.2,545L1546.2,545z"/>
<path class="st2" d="M1544.5,544.5c0,0,0.1,0,0.1,0l1,1c0,0,0,0.1,0,0.1c0,0-0.1,0-0.1,0l-1-1
	C1544.4,544.6,1544.4,544.5,1544.5,544.5L1544.5,544.5z"/>
<path class="st3" d="M1544.5,544.5c0,0,0.1,0,0.2,0l1,1c0,0,0,0.1,0,0.2c0,0-0.1,0-0.2,0l-1-1
	C1544.4,544.6,1544.4,544.5,1544.5,544.5L1544.5,544.5z M1545.6,545.6c0,0,0-0.1,0-0.1l-1-1c0,0-0.1,0-0.1,0c0,0,0,0.1,0,0.1l1,1
	C1545.5,545.7,1545.6,545.7,1545.6,545.6L1545.6,545.6z"/>
<path class="st2" d="M1544.5,545.5c0,0,0.1,0,0.1,0l0.4,0.5c0,0,0,0.1,0,0.1c0,0-0.1,0-0.1,0l-0.4-0.5
	C1544.5,545.6,1544.5,545.5,1544.5,545.5z"/>
<path class="st3" d="M1544.5,545.5c0,0,0.1,0,0.2,0l0.4,0.5c0,0,0,0.1,0,0.2c0,0-0.1,0-0.2,0l-0.4-0.5
	C1544.5,545.6,1544.5,545.5,1544.5,545.5L1544.5,545.5z M1545.1,546.1c0,0,0-0.1,0-0.1l-0.4-0.5c0,0-0.1,0-0.1,0c0,0,0,0.1,0,0.1
	l0.4,0.5C1545,546.2,1545,546.2,1545.1,546.1L1545.1,546.1z"/>
<path class="st2" d="M1543.5,545.2c0,0,0.1,0,0.1,0l0.8,1.2c0,0,0,0.1,0,0.1c0,0-0.1,0-0.1,0l-0.8-1.2
	C1543.4,545.3,1543.5,545.3,1543.5,545.2L1543.5,545.2z"/>
<path class="st3" d="M1543.5,545.2c0,0,0.1,0,0.2,0l0.8,1.2c0,0,0,0.1,0,0.2c0,0-0.1,0-0.2,0l-0.8-1.2
	C1543.4,545.3,1543.4,545.3,1543.5,545.2L1543.5,545.2z M1544.4,546.6c0,0,0.1-0.1,0-0.1l-0.8-1.2c0,0-0.1,0-0.1,0
	c0,0-0.1,0.1,0,0.1l0.8,1.2C1544.3,546.6,1544.4,546.6,1544.4,546.6L1544.4,546.6z"/>
<path class="st2" d="M1543.4,546.3c0,0,0.1,0,0.1,0l0.3,0.6c0,0,0,0.1,0,0.1s-0.1,0-0.1,0l-0.3-0.6
	C1543.3,546.4,1543.3,546.3,1543.4,546.3L1543.4,546.3z"/>
<path class="st3" d="M1543.4,546.3c0.1,0,0.1,0,0.1,0l0.3,0.6c0,0,0,0.1,0,0.1c-0.1,0-0.1,0-0.1,0l-0.3-0.6
	C1543.3,546.4,1543.3,546.3,1543.4,546.3L1543.4,546.3z M1543.8,547c0,0,0.1-0.1,0-0.1l-0.3-0.6c0,0-0.1-0.1-0.1,0
	c0,0-0.1,0.1,0,0.1l0.3,0.6C1543.7,547,1543.7,547,1543.8,547L1543.8,547z"/>
<path class="st2" d="M1542.4,545.8c0.1,0,0.1,0,0.1,0l0.6,1.4c0,0,0,0.1-0.1,0.1c0,0-0.1,0-0.1,0l-0.6-1.4
	C1542.3,545.9,1542.4,545.8,1542.4,545.8L1542.4,545.8z"/>
<path class="st3" d="M1542.4,545.8c0.1,0,0.1,0,0.1,0.1l0.6,1.4c0,0.1,0,0.1-0.1,0.1c-0.1,0-0.1,0-0.1-0.1l-0.6-1.4
	C1542.3,545.9,1542.4,545.8,1542.4,545.8L1542.4,545.8z M1543.1,547.3c0,0,0.1-0.1,0-0.1l-0.6-1.4c0,0-0.1-0.1-0.1,0
	c0,0-0.1,0.1,0,0.1l0.6,1.4C1543,547.3,1543,547.4,1543.1,547.3z"/>
<path class="st2" d="M1542.1,546.8c0.1,0,0.1,0,0.1,0.1l0.2,0.6c0,0,0,0.1-0.1,0.1c-0.1,0-0.1,0-0.1-0.1l-0.2-0.6
	C1542,546.9,1542,546.8,1542.1,546.8L1542.1,546.8z"/>
<path class="st3" d="M1542.1,546.8c0.1,0,0.1,0,0.1,0.1l0.2,0.6c0,0.1,0,0.1-0.1,0.1c-0.1,0-0.1,0-0.1-0.1l-0.2-0.6
	C1542,546.9,1542,546.8,1542.1,546.8L1542.1,546.8z M1542.3,547.6c0,0,0.1-0.1,0.1-0.1l-0.2-0.6c0,0-0.1-0.1-0.1-0.1
	c0,0-0.1,0.1-0.1,0.1l0.2,0.6C1542.2,547.6,1542.3,547.6,1542.3,547.6C1542.3,547.6,1542.3,547.6,1542.3,547.6L1542.3,547.6z"/>
<path class="st2" d="M1541.2,546.2c0.1,0,0.1,0,0.1,0.1l0.3,1.4c0,0.1,0,0.1-0.1,0.1c-0.1,0-0.1,0-0.1-0.1l-0.3-1.4
	C1541.2,546.2,1541.2,546.2,1541.2,546.2L1541.2,546.2z"/>
<path class="st3" d="M1541.2,546.2c0.1,0,0.1,0,0.1,0.1l0.3,1.4c0,0.1,0,0.1-0.1,0.1c-0.1,0-0.1,0-0.1-0.1l-0.3-1.4
	C1541.1,546.2,1541.2,546.2,1541.2,546.2L1541.2,546.2z M1541.6,547.8c0,0,0.1-0.1,0.1-0.1l-0.3-1.4c0,0-0.1-0.1-0.1-0.1
	c0,0-0.1,0.1-0.1,0.1l0.3,1.4C1541.5,547.8,1541.5,547.8,1541.6,547.8L1541.6,547.8z"/>
<path class="st2" d="M1540.7,547.1c0.1,0,0.1,0,0.1,0.1l0.1,0.6c0,0.1,0,0.1-0.1,0.1c-0.1,0-0.1,0-0.1-0.1l-0.1-0.6
	C1540.6,547.1,1540.7,547.1,1540.7,547.1z"/>
<path class="st3" d="M1540.7,547.1c0.1,0,0.1,0,0.1,0.1l0.1,0.6c0,0.1,0,0.1-0.1,0.1c-0.1,0-0.1,0-0.1-0.1l-0.1-0.6
	C1540.6,547.1,1540.6,547.1,1540.7,547.1z M1540.8,547.9c0,0,0.1-0.1,0.1-0.1l-0.1-0.6c0,0-0.1-0.1-0.1-0.1s-0.1,0.1-0.1,0.1
	l0.1,0.6C1540.7,547.9,1540.8,547.9,1540.8,547.9z"/>
<path class="st2" d="M1540,546.3c0.1,0,0.1,0,0.1,0.1v1.5c0,0.1,0,0.1-0.1,0.1s-0.1,0-0.1-0.1v-1.5
	C1539.9,546.3,1539.9,546.3,1540,546.3z"/>
<path class="st3" d="M1540,546.3c0.1,0,0.1,0,0.1,0.1v1.5c0,0.1,0,0.1-0.1,0.1c-0.1,0-0.1,0-0.1-0.1v-1.5
	C1539.9,546.3,1539.9,546.3,1540,546.3z M1540,548C1540,548,1540.1,547.9,1540,548l0.1-1.6c0,0,0-0.1-0.1-0.1c0,0-0.1,0-0.1,0.1
	L1540,548C1539.9,547.9,1539.9,548,1540,548z"/>
<path class="st2" d="M1539.3,547.1c0.1,0,0.1,0,0.1,0.1l0,0.7c0,0.1-0.1,0.1-0.1,0.1c-0.1,0-0.1,0-0.1-0.1l0-0.7
	C1539.2,547.1,1539.2,547.1,1539.3,547.1z"/>
<path class="st3" d="M1539.3,547.1c0.1,0,0.1,0.1,0.1,0.1l0,0.7c0,0.1-0.1,0.1-0.1,0.1c-0.1,0-0.1-0.1-0.1-0.1l0-0.7
	C1539.2,547.1,1539.2,547.1,1539.3,547.1z M1539.2,547.9C1539.3,547.9,1539.3,547.9,1539.2,547.9l0.1-0.7c0,0,0-0.1-0.1-0.1
	c0,0-0.1,0-0.1,0.1L1539.2,547.9C1539.1,547.9,1539.2,547.9,1539.2,547.9L1539.2,547.9z"/>
<path class="st2" d="M1538.8,546.2c0.1,0,0.1,0.1,0.1,0.1l-0.3,1.4c0,0.1-0.1,0.1-0.1,0.1c-0.1,0-0.1-0.1-0.1-0.1l0.3-1.4
	C1538.6,546.2,1538.7,546.2,1538.8,546.2z"/>
<path class="st3" d="M1538.8,546.2c0.1,0,0.1,0.1,0.1,0.1l-0.3,1.4c0,0.1-0.1,0.1-0.1,0.1c-0.1,0-0.1-0.1-0.1-0.1l0.3-1.4
	C1538.6,546.2,1538.7,546.2,1538.8,546.2L1538.8,546.2z M1538.4,547.8c0,0,0.1,0,0.1-0.1l0.3-1.4c0,0,0-0.1-0.1-0.1
	c0,0-0.1,0-0.1,0.1l-0.3,1.4C1538.3,547.7,1538.4,547.8,1538.4,547.8z"/>
<path class="st2" d="M1537.9,546.8c0.1,0,0.1,0.1,0.1,0.1l-0.2,0.6c0,0.1-0.1,0.1-0.1,0.1c-0.1,0-0.1-0.1-0.1-0.1c0,0,0,0,0,0
	l0.2-0.6C1537.8,546.8,1537.9,546.8,1537.9,546.8L1537.9,546.8z"/>
<path class="st3" d="M1537.9,546.8c0.1,0,0.1,0.1,0.1,0.1l-0.2,0.6c0,0.1-0.1,0.1-0.1,0.1c-0.1,0-0.1-0.1-0.1-0.1l0.2-0.6
	C1537.8,546.8,1537.8,546.8,1537.9,546.8L1537.9,546.8z M1537.7,547.6c0,0,0.1,0,0.1-0.1l0.2-0.6c0,0,0-0.1-0.1-0.1
	c0,0-0.1,0-0.1,0.1l-0.2,0.6C1537.6,547.6,1537.6,547.6,1537.7,547.6z"/>
<path class="st2" d="M1537.6,545.8c0.1,0,0.1,0.1,0.1,0.1l-0.6,1.4c0,0-0.1,0.1-0.1,0c0,0-0.1-0.1-0.1-0.1l0.6-1.4
	C1537.5,545.8,1537.5,545.8,1537.6,545.8L1537.6,545.8z"/>
<path class="st3" d="M1537.6,545.8c0.1,0,0.1,0.1,0.1,0.1l-0.6,1.4c0,0.1-0.1,0.1-0.1,0.1c-0.1,0-0.1-0.1-0.1-0.1l0.6-1.4
	C1537.4,545.8,1537.5,545.8,1537.6,545.8z M1536.9,547.3c0,0,0.1,0,0.1,0l0.6-1.4c0,0,0-0.1-0.1-0.1s-0.1,0-0.1,0l-0.6,1.4
	C1536.9,547.3,1536.9,547.3,1536.9,547.3z"/>
<path class="st2" d="M1536.6,546.3c0,0,0.1,0.1,0,0.1l-0.3,0.6c0,0-0.1,0.1-0.1,0c0,0-0.1-0.1,0-0.1l0.3-0.6
	C1536.5,546.3,1536.6,546.2,1536.6,546.3z"/>
<path class="st3" d="M1536.6,546.3c0.1,0,0.1,0.1,0,0.1l-0.3,0.6c0,0.1-0.1,0.1-0.1,0c-0.1,0-0.1-0.1,0-0.1l0.3-0.6
	C1536.5,546.3,1536.6,546.2,1536.6,546.3z M1536.2,547c0,0,0.1,0,0.1,0l0.3-0.6c0,0,0-0.1,0-0.1c0,0-0.1,0-0.1,0l-0.3,0.6
	C1536.2,546.9,1536.2,547,1536.2,547L1536.2,547z"/>
<path class="st2" d="M1536.5,545.2c0,0,0.1,0.1,0,0.1l-0.8,1.2c0,0-0.1,0.1-0.1,0c0,0-0.1-0.1,0-0.1l0.8-1.2
	C1536.4,545.2,1536.4,545.2,1536.5,545.2L1536.5,545.2z"/>
<path class="st3" d="M1536.5,545.2c0,0,0.1,0.1,0,0.2l-0.8,1.2c0,0-0.1,0.1-0.2,0c0,0-0.1-0.1,0-0.2l0.8-1.2
	C1536.4,545.2,1536.4,545.2,1536.5,545.2L1536.5,545.2z M1535.5,546.6c0,0,0.1,0,0.1,0l0.8-1.2c0,0,0-0.1,0-0.1c0,0-0.1,0-0.1,0
	l-0.8,1.2C1535.5,546.5,1535.5,546.6,1535.5,546.6L1535.5,546.6z"/>
<path class="st2" d="M1535.5,545.5c0,0,0.1,0.1,0,0.1l-0.4,0.5c0,0-0.1,0-0.1,0c0,0-0.1-0.1,0-0.1l0.4-0.5
	C1535.3,545.5,1535.4,545.4,1535.5,545.5z"/>
<path class="st3" d="M1535.5,545.5c0,0,0.1,0.1,0,0.2l-0.4,0.5c0,0-0.1,0.1-0.2,0c0,0-0.1-0.1,0-0.2l0.4-0.5
	C1535.3,545.4,1535.4,545.4,1535.5,545.5z M1534.9,546.1c0,0,0.1,0,0.1,0l0.4-0.5c0,0,0-0.1,0-0.1c0,0-0.1,0-0.1,0l-0.4,0.5
	C1534.9,546.1,1534.9,546.1,1534.9,546.1L1534.9,546.1z"/>
<path class="st2" d="M1535.5,544.4c0,0,0,0.1,0,0.1l-1,1c0,0-0.1,0-0.1,0c0,0,0-0.1,0-0.1l1-1
	C1535.4,544.4,1535.5,544.4,1535.5,544.4z"/>
<path class="st3" d="M1535.5,544.4c0,0,0,0.1,0,0.2l-1,1c0,0-0.1,0-0.2,0c0,0,0-0.1,0-0.2l1-1
	C1535.4,544.4,1535.5,544.4,1535.5,544.4z M1534.3,545.6c0,0,0.1,0,0.1,0l1-1c0,0,0-0.1,0-0.1c0,0-0.1,0-0.1,0l-1,1
	C1534.3,545.5,1534.3,545.6,1534.3,545.6L1534.3,545.6z"/>
<path class="st2" d="M1534.5,544.5c0,0,0,0.1,0,0.1l-0.5,0.4c0,0-0.1,0-0.1,0c0,0,0-0.1,0-0.1l0.5-0.4
	C1534.4,544.4,1534.4,544.4,1534.5,544.5z"/>
<path class="st3" d="M1534.5,544.5c0,0,0,0.1,0,0.2l-0.5,0.4c0,0-0.1,0-0.2,0c0,0,0-0.1,0-0.2l0.5-0.4
	C1534.4,544.4,1534.4,544.4,1534.5,544.5L1534.5,544.5z M1533.8,545c0,0,0.1,0,0.1,0l0.5-0.4c0,0,0-0.1,0-0.1c0,0-0.1,0-0.1,0
	l-0.5,0.4C1533.8,544.9,1533.8,545,1533.8,545L1533.8,545z"/>
<path class="st2" d="M1534.7,543.5c0,0,0,0.1,0,0.1l-1.2,0.8c0,0-0.1,0-0.1,0c0,0,0-0.1,0-0.1l1.2-0.8
	C1534.6,543.4,1534.7,543.4,1534.7,543.5L1534.7,543.5z"/>
<path class="st3" d="M1534.8,543.5c0,0,0,0.1,0,0.2l-1.2,0.8c0,0-0.1,0-0.2,0c0,0,0-0.1,0-0.2l1.2-0.8
	C1534.6,543.4,1534.7,543.4,1534.8,543.5L1534.8,543.5z M1533.4,544.4c0,0,0.1,0.1,0.1,0l1.2-0.8c0,0,0.1-0.1,0-0.1
	c0,0-0.1-0.1-0.1,0l-1.2,0.8C1533.3,544.3,1533.3,544.4,1533.4,544.4L1533.4,544.4z"/>
<path class="st2" d="M1533.7,543.3c0,0,0,0.1,0,0.1l-0.6,0.3c0,0-0.1,0-0.1,0c0,0,0-0.1,0-0.1l0.6-0.3
	C1533.6,543.3,1533.7,543.3,1533.7,543.3L1533.7,543.3z"/>
<path class="st3" d="M1533.7,543.3c0,0.1,0,0.1,0,0.1l-0.6,0.3c0,0-0.1,0-0.1,0c0-0.1,0-0.1,0-0.1l0.6-0.3
	C1533.6,543.2,1533.7,543.3,1533.7,543.3L1533.7,543.3z M1533,543.7c0,0,0.1,0.1,0.1,0l0.6-0.3c0,0,0.1-0.1,0-0.1c0,0-0.1-0.1-0.1,0
	l-0.6,0.3C1533,543.6,1532.9,543.7,1533,543.7L1533,543.7z"/>
<path class="st2" d="M1534.2,542.4c0,0.1,0,0.1-0.1,0.1l-1.4,0.6c0,0-0.1,0-0.1-0.1c0-0.1,0-0.1,0.1-0.1l1.4-0.6
	C1534.1,542.3,1534.2,542.3,1534.2,542.4L1534.2,542.4z"/>
<path class="st3" d="M1534.2,542.4c0,0.1,0,0.1-0.1,0.1l-1.4,0.6c-0.1,0-0.1,0-0.1-0.1c0-0.1,0-0.1,0.1-0.1l1.4-0.6
	C1534.1,542.3,1534.2,542.3,1534.2,542.4L1534.2,542.4z M1532.6,543c0,0,0.1,0.1,0.1,0.1l1.4-0.6c0,0,0.1-0.1,0-0.1
	c0,0-0.1-0.1-0.1-0.1l-1.4,0.6C1532.6,542.9,1532.6,543,1532.6,543L1532.6,543z"/>
<path class="st2" d="M1533.2,542c0,0.1,0,0.1-0.1,0.1l-0.6,0.2c0,0-0.1,0-0.1-0.1c0-0.1,0-0.1,0.1-0.1l0.6-0.2
	C1533.1,542,1533.2,542,1533.2,542z"/>
<path class="st3" d="M1533.2,542c0,0.1,0,0.1-0.1,0.1l-0.6,0.2c-0.1,0-0.1,0-0.1-0.1c0-0.1,0-0.1,0.1-0.1l0.6-0.2
	C1533.1,541.9,1533.2,542,1533.2,542L1533.2,542z M1532.4,542.3c0,0,0.1,0.1,0.1,0.1l0.6-0.2c0,0,0.1-0.1,0.1-0.1
	c0,0-0.1-0.1-0.1-0.1l-0.6,0.2C1532.4,542.2,1532.4,542.3,1532.4,542.3z"/>
<path class="st2" d="M1533.8,541.2c0,0.1,0,0.1-0.1,0.1l-1.4,0.3c-0.1,0-0.1,0-0.1-0.1c0-0.1,0-0.1,0.1-0.1l1.4-0.3
	C1533.7,541.1,1533.8,541.1,1533.8,541.2L1533.8,541.2z"/>
<path class="st3" d="M1533.8,541.2c0,0.1,0,0.1-0.1,0.1l-1.4,0.3c-0.1,0-0.1,0-0.1-0.1c0-0.1,0-0.1,0.1-0.1l1.4-0.3
	C1533.8,541.1,1533.8,541.1,1533.8,541.2z M1532.2,541.5c0,0,0.1,0.1,0.1,0.1l1.4-0.3c0,0,0.1-0.1,0.1-0.1c0,0-0.1-0.1-0.1-0.1
	l-1.4,0.3C1532.2,541.4,1532.2,541.5,1532.2,541.5L1532.2,541.5z"/>
<path class="st2" d="M1532.9,540.7c0,0.1,0,0.1-0.1,0.1l-0.6,0.1c-0.1,0-0.1,0-0.1-0.1c0-0.1,0-0.1,0.1-0.1l0.6-0.1
	C1532.8,540.6,1532.9,540.6,1532.9,540.7z"/>
<path class="st3" d="M1532.9,540.7c0,0.1,0,0.1-0.1,0.1l-0.6,0.1c-0.1,0-0.1,0-0.1-0.1c0-0.1,0-0.1,0.1-0.1l0.6-0.1
	C1532.9,540.6,1532.9,540.6,1532.9,540.7L1532.9,540.7z M1532.1,540.8c0,0,0.1,0.1,0.1,0.1l0.6-0.1c0,0,0.1-0.1,0.1-0.1
	c0,0-0.1-0.1-0.1-0.1l-0.6,0.1C1532.1,540.7,1532.1,540.7,1532.1,540.8z"/>
<path class="st2" d="M1533.7,540c0,0.1,0,0.1-0.1,0.1h-1.5c-0.1,0-0.1,0-0.1-0.1c0-0.1,0-0.1,0.1-0.1h1.5
	C1533.7,539.9,1533.7,539.9,1533.7,540L1533.7,540z"/>
<path class="st3" d="M1533.7,540c0,0.1,0,0.1-0.1,0.1h-1.5c-0.1,0-0.1,0-0.1-0.1c0-0.1,0-0.1,0.1-0.1h1.5
	C1533.7,539.9,1533.7,539.9,1533.7,540L1533.7,540z M1532,540C1532,540,1532.1,540.1,1532,540l1.6,0.1c0,0,0.1,0,0.1-0.1
	c0,0,0-0.1-0.1-0.1L1532,540C1532.1,539.9,1532,539.9,1532,540L1532,540z"/>
<path class="st4" d="M1532.9,539.3c0,0.1,0,0.1-0.1,0.1l-0.7,0c-0.1,0-0.1-0.1-0.1-0.1c0-0.1,0-0.1,0.1-0.1l0.7,0
	C1532.9,539.2,1532.9,539.2,1532.9,539.3z"/>
<path class="st3" d="M1532.9,539.3c0,0.1-0.1,0.1-0.1,0.1l-0.7,0c-0.1,0-0.1-0.1-0.1-0.1c0-0.1,0.1-0.1,0.1-0.1l0.7,0
	C1532.9,539.2,1532.9,539.2,1532.9,539.3L1532.9,539.3z M1532.1,539.2C1532.1,539.3,1532.1,539.3,1532.1,539.2l0.7,0.1
	c0,0,0.1,0,0.1-0.1c0,0,0-0.1-0.1-0.1L1532.1,539.2C1532.1,539.1,1532.1,539.2,1532.1,539.2L1532.1,539.2z"/>
<path class="st2" d="M1533.8,538.8c0,0.1-0.1,0.1-0.1,0.1l-1.4-0.3c-0.1,0-0.1-0.1-0.1-0.1c0-0.1,0.1-0.1,0.1-0.1l1.4,0.3
	C1533.8,538.6,1533.8,538.7,1533.8,538.8L1533.8,538.8z"/>
<path class="st3" d="M1533.8,538.8c0,0.1-0.1,0.1-0.1,0.1l-1.4-0.3c-0.1,0-0.1-0.1-0.1-0.1c0-0.1,0.1-0.1,0.1-0.1l1.4,0.3
	C1533.8,538.6,1533.8,538.7,1533.8,538.8L1533.8,538.8z M1532.2,538.4c0,0,0,0.1,0.1,0.1l1.4,0.3c0,0,0.1,0,0.1-0.1
	c0,0,0-0.1-0.1-0.1l-1.4-0.3C1532.3,538.3,1532.2,538.4,1532.2,538.4L1532.2,538.4z"/>
<path class="st2" d="M1533.2,537.9c0,0.1-0.1,0.1-0.1,0.1c0,0,0,0,0,0l-0.6-0.2c-0.1,0-0.1-0.1-0.1-0.1c0-0.1,0.1-0.1,0.1-0.1
	c0,0,0,0,0,0l0.6,0.2C1533.2,537.8,1533.2,537.9,1533.2,537.9L1533.2,537.9z"/>
<path class="st3" d="M1533.2,537.9c0,0.1-0.1,0.1-0.1,0.1l-0.6-0.2c-0.1,0-0.1-0.1-0.1-0.1c0-0.1,0.1-0.1,0.1-0.1l0.6,0.2
	C1533.2,537.8,1533.2,537.8,1533.2,537.9L1533.2,537.9z M1532.4,537.7c0,0,0,0.1,0.1,0.1l0.6,0.2c0,0,0.1,0,0.1-0.1
	c0,0,0-0.1-0.1-0.1l-0.6-0.2C1532.4,537.6,1532.4,537.6,1532.4,537.7L1532.4,537.7z"/>
<path class="st2" d="M1534.2,537.6c0,0.1-0.1,0.1-0.1,0.1l-1.4-0.6c0,0-0.1-0.1-0.1-0.1c0-0.1,0.1-0.1,0.1-0.1l1.4,0.6
	C1534.2,537.5,1534.2,537.5,1534.2,537.6L1534.2,537.6z"/>
<path class="st3" d="M1534.2,537.6c0,0.1-0.1,0.1-0.1,0.1l-1.4-0.6c-0.1,0-0.1-0.1-0.1-0.1c0-0.1,0.1-0.1,0.1-0.1l1.4,0.6
	C1534.2,537.5,1534.2,537.5,1534.2,537.6z M1532.7,536.9c0,0,0,0.1,0,0.1l1.4,0.6c0,0,0.1,0,0.1-0.1s0-0.1,0-0.1l-1.4-0.6
	C1532.7,536.9,1532.7,536.9,1532.7,536.9L1532.7,536.9z"/>
<path class="st2" d="M1533.7,536.6c0,0-0.1,0.1-0.1,0l-0.6-0.3c0,0-0.1-0.1,0-0.1c0,0,0.1-0.1,0.1,0l0.6,0.3
	C1533.7,536.5,1533.8,536.6,1533.7,536.6L1533.7,536.6z"/>
<path class="st3" d="M1533.7,536.6c0,0.1-0.1,0.1-0.1,0l-0.6-0.3c-0.1,0-0.1-0.1,0-0.1c0-0.1,0.1-0.1,0.1,0l0.6,0.3
	C1533.7,536.5,1533.8,536.6,1533.7,536.6L1533.7,536.6z M1533,536.2c0,0,0,0.1,0,0.1l0.6,0.3c0,0,0.1,0,0.1,0c0,0,0-0.1,0-0.1
	l-0.6-0.3C1533.1,536.2,1533,536.2,1533,536.2L1533,536.2z"/>
<path class="st2" d="M1534.8,536.5c0,0-0.1,0.1-0.1,0l-1.2-0.8c0,0-0.1-0.1,0-0.1c0,0,0.1-0.1,0.1,0l1.2,0.8
	C1534.8,536.4,1534.8,536.4,1534.8,536.5L1534.8,536.5z"/>
<path class="st3" d="M1534.8,536.5c0,0-0.1,0.1-0.2,0l-1.2-0.8c0,0-0.1-0.1,0-0.2c0,0,0.1-0.1,0.2,0l1.2,0.8
	C1534.8,536.4,1534.8,536.4,1534.8,536.5L1534.8,536.5z M1533.4,535.6c0,0,0,0.1,0,0.1l1.2,0.8c0,0,0.1,0,0.1,0c0,0,0-0.1,0-0.1
	l-1.2-0.8C1533.5,535.5,1533.4,535.5,1533.4,535.6L1533.4,535.6z"/>
<path class="st2" d="M1534.5,535.5c0,0-0.1,0.1-0.1,0l-0.5-0.4c0,0,0-0.1,0-0.1s0.1-0.1,0.1,0l0.5,0.4
	C1534.5,535.4,1534.5,535.4,1534.5,535.5z"/>
<path class="st3" d="M1534.5,535.5c0,0-0.1,0.1-0.2,0l-0.5-0.4c0,0-0.1-0.1,0-0.2c0,0,0.1-0.1,0.2,0l0.5,0.4
	C1534.5,535.4,1534.5,535.4,1534.5,535.5L1534.5,535.5z M1533.8,535c0,0,0,0.1,0,0.1l0.5,0.4c0,0,0.1,0,0.1,0c0,0,0-0.1,0-0.1
	l-0.5-0.4C1533.9,534.9,1533.9,534.9,1533.8,535L1533.8,535z"/>
<path class="st2" d="M1535.5,535.5c0,0-0.1,0-0.1,0l-1-1c0,0,0-0.1,0-0.1c0,0,0.1,0,0.1,0l1,1
	C1535.6,535.4,1535.6,535.5,1535.5,535.5L1535.5,535.5z"/>
<path class="st3" d="M1535.5,535.5c0,0-0.1,0-0.2,0l-1-1c0,0,0-0.1,0-0.2c0,0,0.1,0,0.2,0l1,1
	C1535.6,535.4,1535.6,535.5,1535.5,535.5L1535.5,535.5z M1534.4,534.4c0,0,0,0.1,0,0.1l1,1c0,0,0.1,0,0.1,0s0-0.1,0-0.1l-1-1
	C1534.5,534.3,1534.4,534.3,1534.4,534.4L1534.4,534.4z"/>
<path class="st2" d="M1535.5,534.5c0,0-0.1,0-0.1,0l-0.4-0.5c0,0,0-0.1,0-0.1c0,0,0.1,0,0.1,0l0.4,0.5
	C1535.5,534.4,1535.5,534.5,1535.5,534.5L1535.5,534.5z"/>
<path class="st3" d="M1535.5,534.5c0,0-0.1,0-0.2,0l-0.4-0.5c0,0,0-0.1,0-0.2c0,0,0.1,0,0.2,0l0.4,0.5
	C1535.5,534.4,1535.5,534.5,1535.5,534.5z M1534.9,533.9c0,0,0,0.1,0,0.1l0.4,0.5c0,0,0.1,0,0.1,0c0,0,0-0.1,0-0.1l-0.4-0.5
	C1535,533.8,1535,533.8,1534.9,533.9L1534.9,533.9z"/>
<path class="st2" d="M1536.5,534.8c0,0-0.1,0-0.1,0l-0.8-1.2c0,0,0-0.1,0-0.1c0,0,0.1,0,0.1,0l0.8,1.2
	C1536.6,534.7,1536.5,534.7,1536.5,534.8L1536.5,534.8z"/>
<path class="st3" d="M1536.5,534.8c0,0-0.1,0-0.2,0l-0.8-1.2c0,0,0-0.1,0-0.2c0,0,0.1,0,0.2,0l0.8,1.2
	C1536.6,534.7,1536.6,534.7,1536.5,534.8z M1535.6,533.4c0,0-0.1,0.1,0,0.1l0.8,1.2c0,0,0.1,0,0.1,0c0,0,0.1-0.1,0-0.1l-0.8-1.2
	C1535.7,533.4,1535.6,533.4,1535.6,533.4L1535.6,533.4z"/>
<path class="st2" d="M1536.6,533.7c0,0-0.1,0-0.1,0l-0.3-0.6c0,0,0-0.1,0-0.1c0,0,0.1,0,0.1,0l0.3,0.6
	C1536.7,533.6,1536.7,533.7,1536.6,533.7L1536.6,533.7z"/>
<path class="st3" d="M1536.6,533.7c-0.1,0-0.1,0-0.1,0l-0.3-0.6c0,0,0-0.1,0-0.1c0.1,0,0.1,0,0.1,0l0.3,0.6
	C1536.7,533.6,1536.7,533.7,1536.6,533.7L1536.6,533.7z M1536.2,533c0,0-0.1,0.1,0,0.1l0.3,0.6c0,0,0.1,0.1,0.1,0c0,0,0.1-0.1,0-0.1
	l-0.3-0.6C1536.3,533,1536.3,533,1536.2,533L1536.2,533z"/>
<path class="st2" d="M1537.6,534.2c-0.1,0-0.1,0-0.1,0l-0.6-1.4c0,0,0-0.1,0.1-0.1c0.1,0,0.1,0,0.1,0l0.6,1.4
	C1537.7,534.1,1537.6,534.2,1537.6,534.2L1537.6,534.2z"/>
<path class="st3" d="M1537.6,534.2c-0.1,0-0.1,0-0.1-0.1l-0.6-1.4c0-0.1,0-0.1,0.1-0.1c0.1,0,0.1,0,0.1,0.1l0.6,1.4
	C1537.7,534.1,1537.6,534.2,1537.6,534.2L1537.6,534.2z M1536.9,532.7c0,0-0.1,0.1,0,0.1l0.6,1.4c0,0,0.1,0.1,0.1,0s0.1-0.1,0-0.1
	l-0.6-1.4C1537,532.7,1537,532.6,1536.9,532.7L1536.9,532.7z"/>
<path class="st2" d="M1537.9,533.2c-0.1,0-0.1,0-0.1-0.1l-0.2-0.6c0,0,0-0.1,0.1-0.1c0,0,0.1,0,0.1,0.1l0.2,0.6
	C1538,533.1,1538,533.2,1537.9,533.2L1537.9,533.2z"/>
<path class="st3" d="M1537.9,533.2c-0.1,0-0.1,0-0.1-0.1l-0.2-0.6c0-0.1,0-0.1,0.1-0.1c0.1,0,0.1,0,0.1,0.1l0.2,0.6
	C1538,533.1,1538,533.2,1537.9,533.2z M1537.7,532.4c0,0-0.1,0.1-0.1,0.1l0.2,0.6c0,0,0.1,0.1,0.1,0.1c0,0,0.1-0.1,0.1-0.1l-0.2-0.6
	C1537.8,532.4,1537.7,532.4,1537.7,532.4C1537.7,532.4,1537.7,532.4,1537.7,532.4L1537.7,532.4z"/>
<path class="st2" d="M1538.8,533.8c-0.1,0-0.1,0-0.1-0.1l-0.3-1.4c0-0.1,0-0.1,0.1-0.1s0.1,0,0.1,0.1l0.3,1.4
	C1538.8,533.8,1538.8,533.8,1538.8,533.8z"/>
<path class="st3" d="M1538.8,533.8c-0.1,0-0.1,0-0.1-0.1l-0.3-1.4c0-0.1,0-0.1,0.1-0.1c0.1,0,0.1,0,0.1,0.1l0.3,1.4
	C1538.9,533.8,1538.8,533.8,1538.8,533.8L1538.8,533.8z M1538.4,532.2c0,0-0.1,0.1-0.1,0.1l0.3,1.4c0,0,0.1,0.1,0.1,0.1
	c0,0,0.1-0.1,0.1-0.1l-0.3-1.4C1538.5,532.2,1538.5,532.2,1538.4,532.2L1538.4,532.2z"/>
<path class="st2" d="M1539.3,532.9c-0.1,0-0.1,0-0.1-0.1l-0.1-0.6c0-0.1,0-0.1,0.1-0.1c0.1,0,0.1,0,0.1,0.1l0.1,0.6
	C1539.4,532.9,1539.3,532.9,1539.3,532.9L1539.3,532.9z"/>
<path class="st3" d="M1539.3,532.9c-0.1,0-0.1,0-0.1-0.1l-0.1-0.6c0-0.1,0-0.1,0.1-0.1c0.1,0,0.1,0,0.1,0.1l0.1,0.6
	C1539.4,532.9,1539.4,532.9,1539.3,532.9z M1539.2,532.1c0,0-0.1,0.1-0.1,0.1l0.1,0.6c0,0,0.1,0.1,0.1,0.1c0,0,0.1-0.1,0.1-0.1
	l-0.1-0.6C1539.3,532.1,1539.2,532.1,1539.2,532.1L1539.2,532.1z"/>
<linearGradient id="SVGID_3_" gradientUnits="userSpaceOnUse" x1="580.368" y1="1079.8086" x2="580.3663" y2="1079.8054" gradientTransform="matrix(2240.2344 0 0 -2240.2344 -1298619.375 2419562.5)">
	<stop  offset="0" style="stop-color:#000000;stop-opacity:0"/>
	<stop  offset="1" style="stop-color:#000000"/>
</linearGradient>
<circle class="st5" cx="1540" cy="540" r="8.3"/>
<g class="st6">
	<polygon class="st7" points="1545.8,534.7 1539.1,539 1539.1,539 1539.1,539 1539.1,539 1534.9,545.9 1541.1,541 1541.1,541 
		1541.1,541 1545.8,534.7 	"/>
</g>
<path class="st8" d="M1545.7,534.3l-6.6,4.7l2,2L1545.7,534.3"/>
<path class="st9" d="M1539.1,539l1,1l5.6-5.7L1539.1,539L1539.1,539z"/>
<path class="st10" d="M1539.1,539l2,2l-6.6,4.7L1539.1,539L1539.1,539z"/>
<path class="st11" d="M1534.4,545.7l5.7-5.7l-1-1L1534.4,545.7L1534.4,545.7z"/>
</svg>
