<svg xmlns="http://www.w3.org/2000/svg" width="35.656" height="40.97" viewBox="0 0 35.656 40.97">
  <defs>
    <style>
      .cls-1 {
        fill: #fff;
        fill-rule: evenodd;
      }
    </style>
  </defs>
  <path class="cls-1" d="M670.023,4096.64a3.367,3.367,0,0,1-2.407-1.01l-6.087-6.14-0.991,1a3.373,3.373,0,0,1-4.814,0l-3.4-3.43a3.464,3.464,0,0,1,0-4.86l6.234-6.29a25.618,25.618,0,0,0,6.953-13.11l0.017-.08-0.029-.17a3.458,3.458,0,0,1,.416-4.35,3.4,3.4,0,0,1,4.813,0l13.59,13.72a3.464,3.464,0,0,1,0,4.86,3.392,3.392,0,0,1-2.406,1h0a3.322,3.322,0,0,1-1.9-.59l-0.07-.04-0.082.01a25.255,25.255,0,0,0-9.679,4.15l-0.2.14,0.747,0.75a3.464,3.464,0,0,1,0,4.86l-0.991,1,2.69,2.71a3.465,3.465,0,0,1,0,4.86A3.369,3.369,0,0,1,670.023,4096.64Zm-7.079-8.58,6.088,6.14a1.379,1.379,0,0,0,1.982,0,1.426,1.426,0,0,0,0-2l-6.088-6.14Zm-9.2-4.43a1.426,1.426,0,0,0,0,2l3.4,3.43a1.4,1.4,0,0,0,1.982,0l6.088-6.14-5.38-5.43Zm14.508-.81c-0.79.68-1.322,1.22-1.674,1.58l-0.234.23,1.982,2,0.991-1a1.426,1.426,0,0,0,0-2l-0.924-.93Zm-1.118-18.1a27.473,27.473,0,0,1-5.8,11.16l-0.122.14,5.461,5.51,0.141-.12a27.006,27.006,0,0,1,11.058-5.86l0.339-.09-10.985-11.08Zm1.192-5.5a1.41,1.41,0,0,0-.991,2.41l13.59,13.72a1.4,1.4,0,0,0,1.982,0,1.433,1.433,0,0,0,.41-1,1.394,1.394,0,0,0-.41-1l-13.59-13.72A1.411,1.411,0,0,0,668.324,4059.22Zm-10.193,26.42a0.99,0.99,0,0,1-.708-0.29,1.02,1.02,0,0,1,0-1.43l1.7-1.72a1.009,1.009,0,0,1,1.416,0,1.022,1.022,0,0,1,0,1.43l-1.7,1.72A0.987,0.987,0,0,1,658.131,4085.64Zm18.258-25.54a1,1,0,0,1-1-1.01v-2.42a1,1,0,1,1,2,0v2.42A1,1,0,0,1,676.389,4060.1Zm7.207,7.27a1.01,1.01,0,0,1,0-2.02H686a1.01,1.01,0,0,1,0,2.02h-2.4Zm-2.4-4.85a0.985,0.985,0,0,1-.708-0.29,1.017,1.017,0,0,1-.294-0.72,0.994,0.994,0,0,1,.294-0.71l2.4-2.42a1,1,0,0,1,1.709.71,1.034,1.034,0,0,1-.294.72l-2.4,2.42A0.984,0.984,0,0,1,681.2,4062.52Z" transform="translate(-651.344 -4055.66)"/>
</svg>
