<svg xmlns="http://www.w3.org/2000/svg" width="31.06" height="28.09" viewBox="0 0 31.06 28.09">
  <defs>
    <style>
      .cls-1 {
        fill: #fff;
        fill-rule: evenodd;
      }
    </style>
  </defs>
  <path class="cls-1" d="M1471.43,6275.49a0.976,0.976,0,0,1-.71-0.3l-12.2-12.26a9.156,9.156,0,0,1,0-12.88,9.023,9.023,0,0,1,12.8,0l0.11,0.11,0.1-.11a9.079,9.079,0,0,1,12.8,12.88l-12.19,12.26A1.01,1.01,0,0,1,1471.43,6275.49Zm-6.51-26.08a7,7,0,0,0-4.98,2.07,7.116,7.116,0,0,0,0,10.02l11.49,11.55,11.48-11.55a7.064,7.064,0,1,0-9.96-10.02l-0.81.82a1.017,1.017,0,0,1-.71.3h0a1.022,1.022,0,0,1-.72-0.3l-0.81-.82A6.987,6.987,0,0,0,1464.92,6249.41Z" transform="translate(-1455.91 -6247.41)"/>
</svg>
