<?xml version="1.0" encoding="utf-8"?>
<!-- Generator: Adobe Illustrator 22.1.0, SVG Export Plug-In . SVG Version: 6.00 Build 0)  -->
<svg version="1.1" id="Слой_1" xmlns="http://www.w3.org/2000/svg" xmlns:xlink="http://www.w3.org/1999/xlink" x="0px" y="0px"
	 viewBox="0 0 4182.5 1332.5" style="enable-background:new 0 0 4182.5 1332.5;" xml:space="preserve">
<style type="text/css">
	.st0{fill:#35BEEE;}
	.st1{fill:#107AB3;}
	.st2{fill:#FFFFFF;}
	.st3{fill:#0093D6;}
	.st4{fill:#006DAD;}
	.st5{fill:#007BC4;}
	.st6{fill:#1A7FBE;}
	.st7{fill:#00A1DC;}
	.st8{fill:#35BCEC;}
	.st9{fill:#10ABE0;}
	.st10{fill:#2EBAE8;}
	.st11{fill:#00AADD;}
	.st12{fill:#1DB6E8;}
	.st13{fill:#01AFE6;}
	.st14{fill:#2EBAEA;}
	.st15{fill:#57C0EB;}
	.st16{fill:#67C7F0;}
	.st17{fill:#84CFF2;}
	.st18{fill:#66C4EB;}
	.st19{fill:#61C4EC;}
	.st20{fill:#0099CB;}
</style>
<g>
	<polygon class="st0" points="604.8,1109.2 1023.9,981.1 1121.3,557.7 804,258.3 385.6,384.1 286.1,810.7 	"/>
	<path class="st1" d="M2087.9,934.5V635.9c0-55.5-24.6-91-81-91c-45.5,0-93.8,32.8-116.5,67.4v322.3h-68.3V635.9
		c0-55.5-23.7-91-81-91c-44.6,0-91.9,32.8-115.6,68.3v321.3h-68.3V494.8h68.3v63.7c18.2-28.2,77.4-74.6,142-74.6
		c67.4,0,105.6,36.4,118.3,81.9c24.6-40.1,83.7-81.9,147.5-81.9c80.1,0,122.9,44.6,122.9,132.9v317.7H2087.9z"/>
	<path class="st1" d="M2171.6,714.2c0-127.4,83.7-230.3,217.6-230.3c133.8,0,217.6,102.9,217.6,230.3
		c0,127.4-83.7,231.2-217.6,231.2C2255.4,945.4,2171.6,841.6,2171.6,714.2z M2534.8,714.2c0-89.2-51.9-169.3-145.7-169.3
		c-93.8,0-146.6,80.1-146.6,169.3c0,90.1,52.8,170.2,146.6,170.2C2482.9,884.4,2534.8,804.3,2534.8,714.2z"/>
	<path class="st1" d="M2627.3,934.5V327.3h68.3v234c35.5-48.2,88.3-77.4,148.4-77.4c114.7,0,195.7,91,195.7,231.2
		c0,142.9-81,230.3-195.7,230.3c-61.9,0-115.6-31.9-148.4-76.5v65.5H2627.3z M2826.6,884.4c89.2,0,142-71.9,142-169.3
		c0-97.4-52.8-170.2-142-170.2c-53.7,0-107.4,32.8-131.1,71v199.4C2719.2,853.5,2772.9,884.4,2826.6,884.4z"/>
	<path class="st1" d="M3047.8,386.5c0-25.5,20.9-46.4,45.5-46.4c25.5,0,46.4,20.9,46.4,46.4s-20.9,45.5-46.4,45.5
		C3068.7,432,3047.8,412,3047.8,386.5z M3059.6,934.5V494.8h68.3v439.7H3059.6z"/>
	<path class="st1" d="M3471.4,934.5v-61.9c-33.7,38.2-91,72.8-156.6,72.8c-91.9,0-140.2-44.6-140.2-140.2V494.8h68.3v289.5
		c0,77.4,39.1,100.1,98.3,100.1c53.7,0,104.7-31,130.2-66.5V494.8h68.3v439.7H3471.4z"/>
	<path class="st1" d="M4114.2,934.5V635.9c0-55.5-24.6-91-81-91c-45.5,0-93.8,32.8-116.5,67.4v322.3h-68.3V635.9
		c0-55.5-23.7-91-81-91c-44.6,0-91.9,32.8-115.6,68.3v321.3h-68.3V494.8h68.3v63.7c18.2-28.2,77.4-74.6,142-74.6
		c67.4,0,105.6,36.4,118.3,81.9c24.6-40.1,83.7-81.9,147.5-81.9c80.1,0,122.9,44.6,122.9,132.9v317.7H4114.2z"/>
	<g>
		<path class="st2" d="M860.4,844.1V642.4c0-29.8-13.2-50.9-47.6-50.9c-29.8,0-54.2,19.8-66.1,37v215.6h-84.6V642.4
			c0-29.8-13.2-50.9-47.6-50.9c-29.1,0-53.6,19.8-66.1,37.7v214.9h-84V524.7h84v41.7c13.2-19.2,55.5-49.6,104.5-49.6
			c46.9,0,76.7,21.8,88.6,58.2c18.5-29.1,60.8-58.2,109.8-58.2c58.8,0,93.9,31.1,93.9,96.5v230.8H860.4z"/>
	</g>
	<polygon class="st3" points="604.8,1109.2 1023.9,981.1 973.1,1179.1 	"/>
	<polygon class="st4" points="1115,1180.1 1023.9,981.1 973.1,1179.1 	"/>
	<polygon class="st5" points="498.4,1290.6 906.3,1290.6 973.1,1179.1 604.8,1109.2 	"/>
	<polygon class="st6" points="431.2,1179.1 604.8,1109.2 498.4,1290.6 	"/>
	<polygon class="st7" points="286.1,810.7 431.2,1179.1 604.8,1109.2 	"/>
	<polygon class="st8" points="126.3,684.7 60.7,789.5 286.1,810.7 	"/>
	<polygon class="st9" points="385.6,384.1 126.3,684.7 286.1,810.7 	"/>
	<polygon class="st10" points="61.7,579.9 290.4,190.4 385.6,384.1 126.3,684.7 	"/>
	<polygon class="st11" points="431.2,190.4 290.4,190.4 385.6,384.1 	"/>
	<polygon class="st12" points="1121.3,557.7 1023.9,981.1 1278,683.7 	"/>
	<polygon class="st13" points="1343.8,788.9 1278,683.7 1023.9,981.1 1115,1180.1 	"/>
	<polygon class="st14" points="1344.5,577.9 1121.3,557.7 1278,683.7 	"/>
	<polygon class="st15" points="974,189.8 1121.3,557.7 1344.5,577.9 1114.5,189.8 	"/>
	<polygon class="st16" points="804,258.3 906.3,79.7 974,189.8 	"/>
	<polygon class="st17" points="431.2,190.4 804,258.3 906.3,79.7 499.1,79.7 	"/>
	<polygon class="st18" points="1121.3,557.7 804,258.3 974,189.8 	"/>
	<polygon class="st19" points="385.6,384.1 804,258.3 431.2,190.4 	"/>
	<polygon class="st20" points="431.2,1179.1 286.1,810.7 60.7,789.5 291,1180.5 	"/>
</g>
</svg>
